<svg id="svg" version="1.1" xmlns="http://www.w3.org/2000/svg" style="display: block;" viewBox="0 0 369 136"><path d="M0 0 C121.77 0 243.54 0 369 0 C369 44.88 369 89.76 369 136 C247.23 136 125.46 136 0 136 C0 91.12 0 46.24 0 0 Z " transform="translate(0,0)" style="fill: #FCFCFD;"/><path d="M0 0 C5.83547987 4.20325241 9.99634907 10.101465 12 17 C13.42725485 26.11831686 13.01250983 34.78357301 7.90234375 42.6953125 C3.03379563 48.59355355 -3.34308471 53.59517752 -11 55 C-22.25535346 55.93684654 -29.56808425 55.10572344 -38.25 47.875 C-45.13003825 41.39656152 -48.02286487 33.84813743 -48.4375 24.5 C-48.3488892 16.43641744 -45.39598548 9.80026946 -40.03125 3.796875 C-28.21354581 -7.02086961 -13.77721591 -7.76569824 0 0 Z " transform="translate(65,43)" style="fill: #C31816;"/><path d="M0 0 C3.465 7.425 3.465 7.425 7 15 C8.88856668 12.16714998 10.50546052 9.3051273 12.125 6.3125 C12.66382813 5.31863281 13.20265625 4.32476562 13.7578125 3.30078125 C14.16773438 2.54152344 14.57765625 1.78226563 15 1 C16.299375 1.020625 17.59875 1.04125 18.9375 1.0625 C20.29165633 1.08399454 21.64756083 1.07148199 23 1 C23.33 0.67 23.66 0.34 24 0 C30.06281442 -0.40182396 36.00670719 0.11210477 42 1 C42 2.98 42 4.96 42 7 C41.649375 6.525625 41.29875 6.05125 40.9375 5.5625 C38.15836457 3.32126175 35.4855283 3.32882342 32 3 C32 5.97 32 8.94 32 12 C36.47883696 11.55296014 36.47883696 11.55296014 40 9 C40 11.31 40 13.62 40 16 C39.34 15.34 38.68 14.68 38 14 C36.01178687 13.60235737 34.01055661 13.26224651 32 13 C32.495 17.455 32.495 17.455 33 22 C38.13725982 22.48489837 38.13725982 22.48489837 42.4375 20 C42.953125 19.34 43.46875 18.68 44 18 C43.67 20.31 43.34 22.62 43 25 C32.77 25 22.54 25 12 25 C12 24.34 12 23.68 12 23 C12.66 22.67 13.32 22.34 14 22 C14 17.05 14 12.1 14 7 C10.535 14.92 10.535 14.92 7 23 C6.01 23 5.02 23 4 23 C2.02 18.05 0.04 13.1 -2 8 C-2.33 12.95 -2.66 17.9 -3 23 C-2.01 23 -1.02 23 0 23 C0 23.66 0 24.32 0 25 C-1.47906892 25.02689216 -2.95827483 25.04634621 -4.4375 25.0625 C-5.67306641 25.07990234 -5.67306641 25.07990234 -6.93359375 25.09765625 C-9 25 -9 25 -10 24 C-11.85287502 23.92773498 -13.70833878 23.9161878 -15.5625 23.9375 C-16.57441406 23.94652344 -17.58632812 23.95554687 -18.62890625 23.96484375 C-19.41136719 23.97644531 -20.19382813 23.98804687 -21 24 C-20.34 23.34 -19.68 22.68 -19 22 C-18.69054094 19.99978031 -18.69054094 19.99978031 -18.734375 17.71875 C-18.73179687 16.87699219 -18.72921875 16.03523438 -18.7265625 15.16796875 C-18.73429688 14.28753906 -18.74203125 13.40710937 -18.75 12.5 C-18.74226562 11.61957031 -18.73453125 10.73914062 -18.7265625 9.83203125 C-18.73042969 8.56939453 -18.73042969 8.56939453 -18.734375 7.28125 C-18.73663086 6.50845703 -18.73888672 5.73566406 -18.74121094 4.93945312 C-18.83175627 2.76332939 -18.83175627 2.76332939 -21 1 C-19.71802734 1.01740234 -19.71802734 1.01740234 -18.41015625 1.03515625 C-16.75306641 1.04869141 -16.75306641 1.04869141 -15.0625 1.0625 C-13.40927734 1.07990234 -13.40927734 1.07990234 -11.72265625 1.09765625 C-6.14029101 0.89742794 -8.45654027 0 0 0 Z " transform="translate(214,45)" style="fill: #E3E6EF;"/><path d="M0 0 C51.15 0 102.3 0 155 0 C155 1.32 155 2.64 155 4 C103.85 4 52.7 4 0 4 C0 2.68 0 1.36 0 0 Z " transform="translate(196,83)" style="fill: #2F5195;"/><path d="M0 0 C5.98452926 2.43526299 8.74254568 8.31362032 11.375 13.9375 C13.28434322 23.2932818 11.65193974 30.6500626 7 39 C2.97558177 44.56228525 -2.29293782 48.41247408 -9 50 C-17.66395188 50.85233604 -25.58403908 51.1457688 -33 46 C-33.33 45.34 -33.66 44.68 -34 44 C-26 43 -26 43 -18 42 C-17.34 44.31 -16.68 46.62 -16 49 C-6.3130825 47.49763085 0.13875605 43.87604656 6 36 C0.06 36.495 0.06 36.495 -6 37 C-6.66 34.36 -7.32 31.72 -8 29 C-5.37605694 28.16320723 -2.75095616 27.33043058 -0.125 26.5 C0.62136719 26.26152344 1.36773437 26.02304688 2.13671875 25.77734375 C7.7734375 24 7.7734375 24 10 24 C10 21.03 10 18.06 10 15 C8.73542969 15.3609375 7.47085938 15.721875 6.16796875 16.09375 C4.50787022 16.56270439 2.84771078 17.03144318 1.1875 17.5 C0.35412109 17.73847656 -0.47925781 17.97695313 -1.33789062 18.22265625 C-2.54155273 18.56103516 -2.54155273 18.56103516 -3.76953125 18.90625 C-4.50792236 19.11572266 -5.24631348 19.32519531 -6.00708008 19.54101562 C-8 20 -8 20 -11 20 C-11.66 17.36 -12.32 14.72 -13 12 C-7.09696295 9.34965684 -1.57457099 7 5 7 C3.35 4.69 1.7 2.38 0 0 Z " transform="translate(64,46)" style="fill: #F5F1F2;"/><path d="M0 0 C1.76462683 3.08809695 2 4.23312136 2 8 C3.216875 7.67 4.43375 7.34 5.6875 7 C8.87210604 6.19677787 11.6972843 5.79358027 15 6 C12.06631349 11.86737303 7.35148179 16.09503517 1.4375 18.875 C-1.95223373 19.9843674 -4.46417057 20.25871923 -8 20 C-8.66 17.69 -9.32 15.38 -10 13 C-10.95261719 13.23976563 -11.90523437 13.47953125 -12.88671875 13.7265625 C-14.14097656 14.02304688 -15.39523438 14.31953125 -16.6875 14.625 C-17.92886719 14.92664063 -19.17023437 15.22828125 -20.44921875 15.5390625 C-24.17627149 16.02288233 -25.76534117 15.80674637 -29 14 C-29.66 13.34 -30.32 12.68 -31 12 C-30.625 9.875 -30.625 9.875 -30 8 C-26.67988269 7.05139505 -23.35968993 6.10306841 -20.0390625 5.15625 C-17.36505132 4.39261786 -14.69342227 3.62133843 -12.0234375 2.84375 C-10.77820313 2.4828125 -9.53296875 2.121875 -8.25 1.75 C-7.10015625 1.41484375 -5.9503125 1.0796875 -4.765625 0.734375 C-2 0 -2 0 0 0 Z " transform="translate(56,75)" style="fill: #C41F21;"/><path d="M0 0 C50.82 0 101.64 0 154 0 C154 0.99 154 1.98 154 3 C103.18 3 52.36 3 0 3 C0 2.01 0 1.02 0 0 Z " transform="translate(196,79)" style="fill: #C00708;"/><path d="M0 0 C-0.56847656 0.21914063 -1.13695313 0.43828125 -1.72265625 0.6640625 C-7.23266356 2.92693695 -11.98115502 5.51468195 -16 10 C-16.33 10.99 -16.66 11.98 -17 13 C-15.9275 12.67 -14.855 12.34 -13.75 12 C-10 11 -10 11 -6 11 C-4.50178941 14.37097383 -4 16.20442119 -4 20 C-6.4363189 20.67126129 -8.87388883 21.33716354 -11.3125 22 C-12.00279297 22.19078125 -12.69308594 22.3815625 -13.40429688 22.578125 C-16.35787949 23.37716184 -18.92559219 24 -22 24 C-21.67 26.97 -21.34 29.94 -21 33 C-19.21142578 32.45859375 -19.21142578 32.45859375 -17.38671875 31.90625 C-15.82037676 31.43728533 -14.25396695 30.96854711 -12.6875 30.5 C-11.90181641 30.26152344 -11.11613281 30.02304688 -10.30664062 29.77734375 C-9.54931641 29.55175781 -8.79199219 29.32617188 -8.01171875 29.09375 C-7.31522217 28.88427734 -6.61872559 28.67480469 -5.90112305 28.45898438 C-4 28 -4 28 -1 28 C-0.34 30.97 0.32 33.94 1 37 C-0.30324219 37.39832031 -0.30324219 37.39832031 -1.6328125 37.8046875 C-3.36144531 38.33449219 -3.36144531 38.33449219 -5.125 38.875 C-6.83042969 39.39707031 -6.83042969 39.39707031 -8.5703125 39.9296875 C-11.72751664 40.91496533 -14.86627606 41.94272536 -18 43 C-22.85217175 34.8608732 -24.16104431 28.14042252 -22.609375 18.59765625 C-20.63687477 11.4030881 -15.94658226 5.71907385 -9.83984375 1.51171875 C-6.17917799 -0.47940973 -3.94739388 -1.30997584 0 0 Z " transform="translate(42,42)" style="fill: #F4EBEB;"/><path d="M0 0 C2.05078125 0.03255208 4.1015625 0.06510417 6.15234375 0.09765625 C6.15234375 0.42765625 6.15234375 0.75765625 6.15234375 1.09765625 C4.17234375 1.42765625 2.19234375 1.75765625 0.15234375 2.09765625 C0.81234375 2.42765625 1.47234375 2.75765625 2.15234375 3.09765625 C2.03847916 5.8693602 1.91173597 8.63943671 1.77734375 11.41015625 C1.7309375 12.58868164 1.7309375 12.58868164 1.68359375 13.79101562 C1.64492187 14.54833984 1.60625 15.30566406 1.56640625 16.0859375 C1.53498535 16.78243408 1.50356445 17.47893066 1.47119141 18.1965332 C1.15234375 20.09765625 1.15234375 20.09765625 -0.84765625 23.09765625 C1.46234375 23.42765625 3.77234375 23.75765625 6.15234375 24.09765625 C6.15234375 24.42765625 6.15234375 24.75765625 6.15234375 25.09765625 C4.67327483 25.12454841 3.19406892 25.14400246 1.71484375 25.16015625 C0.47927734 25.17755859 0.47927734 25.17755859 -0.78125 25.1953125 C-2.84765625 25.09765625 -2.84765625 25.09765625 -3.84765625 24.09765625 C-5.70053127 24.02539123 -7.55599503 24.01384405 -9.41015625 24.03515625 C-10.42207031 24.04417969 -11.43398437 24.05320312 -12.4765625 24.0625 C-13.25902344 24.07410156 -14.04148438 24.08570312 -14.84765625 24.09765625 C-14.18765625 23.43765625 -13.52765625 22.77765625 -12.84765625 22.09765625 C-12.53819719 20.09743656 -12.53819719 20.09743656 -12.58203125 17.81640625 C-12.57945312 16.97464844 -12.576875 16.13289063 -12.57421875 15.265625 C-12.58195313 14.38519531 -12.5896875 13.50476562 -12.59765625 12.59765625 C-12.58992187 11.71722656 -12.5821875 10.83679687 -12.57421875 9.9296875 C-12.57808594 8.66705078 -12.57808594 8.66705078 -12.58203125 7.37890625 C-12.58428711 6.60611328 -12.58654297 5.83332031 -12.58886719 5.03710938 C-12.67941252 2.86098564 -12.67941252 2.86098564 -14.84765625 1.09765625 C-13.56568359 1.11505859 -13.56568359 1.11505859 -12.2578125 1.1328125 C-10.60072266 1.14634766 -10.60072266 1.14634766 -8.91015625 1.16015625 C-7.25693359 1.17755859 -7.25693359 1.17755859 -5.5703125 1.1953125 C-2.6581884 1.09086042 -2.60383694 0.13762352 0 0 Z " transform="translate(207.84765625,44.90234375)" style="fill: #EFF1F6;"/><path d="M0 0 C0 2.97 0 5.94 0 9 C-23.14624506 17 -23.14624506 17 -31 17 C-32.66670026 13.47051709 -33.13583456 11.71727674 -32 8 C-27.69335938 6.76953125 -23.38671875 5.5390625 -19.08007812 4.30859375 C-18.15517578 4.04433594 -17.23027344 3.78007813 -16.27734375 3.5078125 C-15.37097168 3.25032227 -14.46459961 2.99283203 -13.53076172 2.72753906 C-11.98224603 2.28237441 -10.43624927 1.82816784 -8.89501953 1.35839844 C-5.71076904 0.39419549 -3.38747522 0 0 0 Z " transform="translate(74,61)" style="fill: #133D89;"/><path d="M0 0 C1.87620422 3.16609462 2.09662822 5.35832401 2 9 C-2.018735 10.15328035 -6.04032423 11.296283 -10.0625 12.4375 C-11.19623047 12.76298828 -12.32996094 13.08847656 -13.49804688 13.42382812 C-18.9928157 14.97774234 -24.31383207 16.41405236 -30 17 C-30.33 14.03 -30.66 11.06 -31 8 C-27.10518824 6.85067458 -23.20898052 5.70615396 -19.3125 4.5625 C-18.20970703 4.23701172 -17.10691406 3.91152344 -15.97070312 3.57617188 C-14.90400391 3.26357422 -13.83730469 2.95097656 -12.73828125 2.62890625 C-11.75899658 2.34088135 -10.77971191 2.05285645 -9.77075195 1.75610352 C-3.33548595 0 -3.33548595 0 0 0 Z " transform="translate(51,58)" style="fill: #C41819;"/><path d="M0 0 C2.31 0 4.62 0 7 0 C9.31 4.62 11.62 9.24 14 14 C15.88856668 11.16714998 17.50546052 8.3051273 19.125 5.3125 C19.66382813 4.31863281 20.20265625 3.32476562 20.7578125 2.30078125 C21.16773438 1.54152344 21.57765625 0.78226563 22 0 C24.31 0 26.62 0 29 0 C28.34 0.66 27.68 1.32 27 2 C26.69054094 4.00021969 26.69054094 4.00021969 26.734375 6.28125 C26.73179687 7.12300781 26.72921875 7.96476562 26.7265625 8.83203125 C26.73429687 9.71246094 26.74203125 10.59289063 26.75 11.5 C26.74226563 12.38042969 26.73453125 13.26085938 26.7265625 14.16796875 C26.73042969 15.43060547 26.73042969 15.43060547 26.734375 16.71875 C26.73663086 17.49154297 26.73888672 18.26433594 26.74121094 19.06054688 C26.83175627 21.23667061 26.83175627 21.23667061 29 23 C25.7 23 22.4 23 19 23 C19.66 22.34 20.32 21.68 21 21 C21.14547834 18.41048555 21.18649052 15.95814609 21.125 13.375 C21.08375 10.94125 21.0425 8.5075 21 6 C18.69 11.28 16.38 16.56 14 22 C13.01 22 12.02 22 11 22 C9.02 17.05 7.04 12.1 5 7 C4.67 11.95 4.34 16.9 4 22 C4.99 22.33 5.98 22.66 7 23 C4.36 23 1.72 23 -1 23 C-0.69320312 22.52046875 -0.38640625 22.0409375 -0.0703125 21.546875 C1.4745912 17.87068079 1.72592637 14.19494098 2.125 10.25 C2.21136719 9.45722656 2.29773438 8.66445313 2.38671875 7.84765625 C2.59800054 5.89916859 2.79992467 3.94967024 3 2 C2.01 1.67 1.02 1.34 0 1 C0 0.67 0 0.34 0 0 Z " transform="translate(207,46)" style="fill: #153A89;"/><path d="M0 0 C0 3.3 0 6.6 0 10 C1.3303125 9.5978125 1.3303125 9.5978125 2.6875 9.1875 C6 9 6 9 8.875 11.0625 C11 14 11 14 11.5625 17 C10.87206143 20.68233904 9.63186072 22.36813928 7 25 C3.05448165 26.31517278 -1.1768416 26.9115792 -5 25 C-5 17.74 -5 10.48 -5 3 C-5.66 3 -6.32 3 -7 3 C-7 2.34 -7 1.68 -7 1 C-4.50935112 0.31292445 -2.62113708 0 0 0 Z " transform="translate(140,44)" style="fill: #103989;"/><path d="M0 0 C1.8125 1.5625 1.8125 1.5625 3 3 C3 3.66 3 4.32 3 5 C-0.931239 6.14440791 -4.86395004 7.28359207 -8.7980957 8.41796875 C-10.13607542 8.80455748 -11.47364516 9.19256812 -12.81079102 9.58203125 C-14.7334514 10.14176602 -16.65772284 10.69595748 -18.58203125 11.25 C-19.73936768 11.58515625 -20.8967041 11.9203125 -22.08911133 12.265625 C-25 13 -25 13 -28 13 C-28.66 10.03 -29.32 7.06 -30 4 C-25.94711137 2.73746379 -21.88180882 1.52096141 -17.8125 0.3125 C-16.66201172 -0.04650391 -15.51152344 -0.40550781 -14.32617188 -0.77539062 C-12.65844727 -1.26362305 -12.65844727 -1.26362305 -10.95703125 -1.76171875 C-9.93585205 -2.07069092 -8.91467285 -2.37966309 -7.86254883 -2.69799805 C-4.23421256 -3.08079139 -2.87417709 -2.14835265 0 0 Z " transform="translate(66,48)" style="fill: #113B88;"/><path d="M0 0 C1.24265625 0.01546875 2.4853125 0.0309375 3.765625 0.046875 C6.75 0.25 6.75 0.25 7.75 1.25 C7.79080783 3.24958364 7.79254356 5.25045254 7.75 7.25 C7.09 7.25 6.43 7.25 5.75 7.25 C5.46125 6.610625 5.1725 5.97125 4.875 5.3125 C3.92176549 3.09793921 3.92176549 3.09793921 1.75 2.25 C-1.64011269 1.88150949 -3.61640438 1.89985505 -6.625 3.5625 C-9.19266885 7.80902925 -9.03933604 12.41442783 -8.25 17.25 C-6.82182991 19.84186425 -6.06948042 21.00556607 -3.20703125 21.859375 C-2.49933594 21.90578125 -1.79164062 21.9521875 -1.0625 22 C0.195625 22.0825 1.45375 22.165 2.75 22.25 C2.42 19.94 2.09 17.63 1.75 15.25 C0.76 14.92 -0.23 14.59 -1.25 14.25 C-1.25 13.59 -1.25 12.93 -1.25 12.25 C2.38 12.25 6.01 12.25 9.75 12.25 C9.75 12.91 9.75 13.57 9.75 14.25 C9.09 14.25 8.43 14.25 7.75 14.25 C7.75 17.22 7.75 20.19 7.75 23.25 C1.61392152 24.78401962 -3.90320129 25.40206482 -9.6875 22.5625 C-13.49737051 19.12432417 -15.07241462 16.90746355 -15.625 11.75 C-15.21942028 7.96458927 -14.62361222 6.19655311 -12.25 3.25 C-8.1393241 0.15770131 -5.08257321 -0.10632998 0 0 Z " transform="translate(96.25,45.75)" style="fill: #143B8A;"/><path d="M0 0 C4.21796616 0.86080942 6.17690429 2.46458565 9.0625 5.625 C9.6875 8.625 9.6875 8.625 9.0625 11.625 C7.26256226 14.32490662 5.978727 16.1668865 3.0625 17.625 C-0.59296065 18.03116229 -2.52667682 17.83934253 -5.8125 16.125 C-8.24313428 13.26543025 -8.67395855 11.34389787 -8.421875 7.59765625 C-7.30016347 3.0293956 -4.42497594 0.94148424 0 0 Z " transform="translate(123.9375,52.375)" style="fill: #18408C;"/><path d="M0 0 C0.33 5.28 0.66 10.56 1 16 C2.39148015 13.07539219 2.39148015 13.07539219 3 10 C5.64 9.67 8.28 9.34 11 9 C11 9.66 11 10.32 11 11 C9.02 11.99 7.04 12.98 5 14 C6.4859916 18.59306496 8.85014682 21.43569245 12 25 C8.75 25.375 8.75 25.375 5 25 C2.5625 22 2.5625 22 1 19 C0.67 20.65 0.34 22.3 0 24 C0.66 24.33 1.32 24.66 2 25 C-0.97 25 -3.94 25 -7 25 C-6.34 24.67 -5.68 24.34 -5 24 C-5 17.07 -5 10.14 -5 3 C-5.66 3 -6.32 3 -7 3 C-7 2.34 -7 1.68 -7 1 C-1.125 0 -1.125 0 0 0 Z " transform="translate(338,44)" style="fill: #264D92;"/><path d="M0 0 C0.66 2.97 1.32 5.94 2 9 C0.69675781 9.39832031 0.69675781 9.39832031 -0.6328125 9.8046875 C-2.36144531 10.33449219 -2.36144531 10.33449219 -4.125 10.875 C-5.26195312 11.22304687 -6.39890625 11.57109375 -7.5703125 11.9296875 C-10.72751664 12.91496533 -13.86627606 13.94272536 -17 15 C-19.29379749 11.55930376 -20 10.27709699 -20 6 C-17.72930578 5.18710947 -15.45845099 4.37467262 -13.1875 3.5625 C-12.22360352 3.21735352 -12.22360352 3.21735352 -11.24023438 2.86523438 C-3.22588315 0 -3.22588315 0 0 0 Z " transform="translate(41,70)" style="fill: #FAF6F6;"/><path d="M0 0 C5.61 0 11.22 0 17 0 C17 1.98 17 3.96 17 6 C16.649375 5.525625 16.29875 5.05125 15.9375 4.5625 C13.15836457 2.32126175 10.4855283 2.32882342 7 2 C7 4.97 7 7.94 7 11 C11.47883696 10.55296014 11.47883696 10.55296014 15 8 C15 10.31 15 12.62 15 15 C14.34 14.34 13.68 13.68 13 13 C11.01178687 12.60235737 9.01055661 12.26224651 7 12 C7.33 14.97 7.66 17.94 8 21 C13.13725982 21.48489837 13.13725982 21.48489837 17.4375 19 C17.953125 18.34 18.46875 17.68 19 17 C19.042721 18.66611905 19.04063832 20.33382885 19 22 C18 23 18 23 16.14233398 23.11352539 C15.35157471 23.10828857 14.56081543 23.10305176 13.74609375 23.09765625 C12.89208984 23.09443359 12.03808594 23.09121094 11.15820312 23.08789062 C10.26037109 23.07951172 9.36253906 23.07113281 8.4375 23.0625 C7.53580078 23.05798828 6.63410156 23.05347656 5.70507812 23.04882812 C3.46998686 23.03700225 1.23502563 23.0205222 -1 23 C-0.01 22.67 0.98 22.34 2 22 C1.86145912 18.70798357 1.71292976 15.41649291 1.5625 12.125 C1.52318359 11.18785156 1.48386719 10.25070313 1.44335938 9.28515625 C1.40146484 8.38925781 1.35957031 7.49335937 1.31640625 6.5703125 C1.26141968 5.32918701 1.26141968 5.32918701 1.20532227 4.06298828 C1.11761673 1.93820571 1.11761673 1.93820571 0 0 Z " transform="translate(239,46)" style="fill: #163E8C;"/><path d="M0 0 C3.63 0 7.26 0 11 0 C10.34 0.66 9.68 1.32 9 2 C8.72313935 4.03467434 8.72313935 4.03467434 8.8046875 6.3515625 C8.81113281 7.20234375 8.81757813 8.053125 8.82421875 8.9296875 C8.84097656 9.81914063 8.85773438 10.70859375 8.875 11.625 C8.88402344 12.5221875 8.89304687 13.419375 8.90234375 14.34375 C8.9259503 16.56276586 8.9588769 18.78125077 9 21 C10.65 20.67 12.3 20.34 14 20 C14.20970559 15.85906302 14.20970559 15.85906302 13 12 C15.375 11.875 15.375 11.875 18 12 C20 14 20 14 20.375 16.9375 C20 20 20 20 18.4921875 21.6796875 C14.96334567 23.54919931 11.63509272 23.32135037 7.75 23.1875 C7.00492187 23.17396484 6.25984375 23.16042969 5.4921875 23.14648438 C3.66114584 23.11127204 1.83047831 23.05746851 0 23 C0.66 22.34 1.32 21.68 2 21 C2.30945906 18.99978031 2.30945906 18.99978031 2.265625 16.71875 C2.26820313 15.87699219 2.27078125 15.03523438 2.2734375 14.16796875 C2.26570313 13.28753906 2.25796875 12.40710937 2.25 11.5 C2.25773437 10.61957031 2.26546875 9.73914062 2.2734375 8.83203125 C2.26957031 7.56939453 2.26957031 7.56939453 2.265625 6.28125 C2.26336914 5.50845703 2.26111328 4.73566406 2.25878906 3.93945312 C2.16824373 1.76332939 2.16824373 1.76332939 0 0 Z " transform="translate(272,46)" style="fill: #0E3687;"/><path d="M0 0 C-2.93368651 5.86737303 -7.64851821 10.09503517 -13.5625 12.875 C-16.95223373 13.9843674 -19.46417057 14.25871923 -23 14 C-24.25664978 11.09399739 -25 9.20395416 -25 6 C-21.77429922 4.98857805 -18.54394135 3.99291347 -15.3125 3 C-14.40048828 2.71382813 -13.48847656 2.42765625 -12.54882812 2.1328125 C-11.66259766 1.86210938 -10.77636719 1.59140625 -9.86328125 1.3125 C-9.05157471 1.06113281 -8.23986816 0.80976562 -7.40356445 0.55078125 C-4.86033295 -0.03200496 -2.60022093 -0.09712888 0 0 Z " transform="translate(71,81)" style="fill: #123A88;"/><path d="M0 0 C2.00875442 -0.27571139 4.01178687 -0.60235737 6 -1 C8.96909598 2.27301919 9.34354794 4.38065762 9.1875 8.75 C9.16042969 9.73484375 9.13335937 10.7196875 9.10546875 11.734375 C9.07066406 12.48203125 9.03585937 13.2296875 9 14 C9.66 14 10.32 14 11 14 C11 14.66 11 15.32 11 16 C8.03 16 5.06 16 2 16 C2 15.34 2 14.68 2 14 C2.66 14 3.32 14 4 14 C3.67 10.37 3.34 6.74 3 3 C2.01 3 1.02 3 0 3 C0 6.96 0 10.92 0 15 C-2.64 15 -5.28 15 -8 15 C-7.34 14.67 -6.68 14.34 -6 14 C-6 10.04 -6 6.08 -6 2 C-6.66 2 -7.32 2 -8 2 C-8 1.34 -8 0.68 -8 0 C-4.71303767 -0.79953138 -3.28976808 -1.09658936 0 0 Z " transform="translate(319,54)" style="fill: #183E8B;"/><path d="M0 0 C0 0.66 0 1.32 0 2 C-0.845625 2.20753906 -1.69125 2.41507813 -2.5625 2.62890625 C-11.7978296 5.13713781 -18.33193411 8.31487679 -23.4375 16.625 C-26.61692664 23.49256155 -27.24626486 31.43466706 -25.24609375 38.76171875 C-22.06196467 47.11537505 -17.8537288 51.80704417 -10 56 C-6.68455701 57.10514766 -3.79589889 57.32107631 -0.3125 57.5625 C0.86699219 57.64628906 2.04648437 57.73007813 3.26171875 57.81640625 C4.61716797 57.90728516 4.61716797 57.90728516 6 58 C0.63034492 60.98182174 -4.09038762 60.462003 -9.875 59.0625 C-17.03338109 56.04918938 -23.34991122 50.25519533 -26.5625 43.1875 C-29.46253397 35.56970742 -30.54175538 27.67077922 -27.94140625 19.79296875 C-23.84291017 10.96287557 -18.15509036 4.66203615 -9 1 C-5.78967651 0.15920099 -3.36731169 0 0 0 Z " transform="translate(46,38)" style="fill: #203A8A;"/><path d="M0 0 C0.33 2.64 0.66 5.28 1 8 C-2.03949018 8.9860117 -5.08194176 9.96256125 -8.125 10.9375 C-8.9809375 11.21529297 -9.836875 11.49308594 -10.71875 11.77929688 C-15.13284044 13.18841036 -19.38666501 14.4025353 -24 15 C-19.81649037 7.97170382 -14.73133716 3.0733145 -6.8671875 0.45703125 C-4.53009371 -0.1150189 -2.39278893 -0.22432396 0 0 Z " transform="translate(47,41)" style="fill: #C41617;"/><path d="M0 0 C2.9375 0.75 2.9375 0.75 4.9375 2.75 C5.375 5.0625 5.375 5.0625 4.9375 7.75 C2.4375 10.5625 2.4375 10.5625 -0.0625 12.75 C0.2675 13.08 0.5975 13.41 0.9375 13.75 C1.1875 16.6875 1.1875 16.6875 0.9375 19.75 C-2.0625 21.75 -2.0625 21.75 -4.25 21.375 C-5.1471875 21.065625 -5.1471875 21.065625 -6.0625 20.75 C-6.14937496 17.62517438 -6.20284568 14.50065754 -6.25 11.375 C-6.27513672 10.48554687 -6.30027344 9.59609375 -6.32617188 8.6796875 C-6.33583984 7.82890625 -6.34550781 6.978125 -6.35546875 6.1015625 C-6.3711792 5.31604004 -6.38688965 4.53051758 -6.40307617 3.72119141 C-6.29068604 3.07069824 -6.1782959 2.42020508 -6.0625 1.75 C-3.0625 -0.25 -3.0625 -0.25 0 0 Z " transform="translate(286.0625,46.25)" style="fill: #1D418C;"/><path d="M0 0 C2 2 2 2 2.1953125 4.6015625 C2.17210937 5.59929688 2.14890625 6.59703125 2.125 7.625 C2.10695313 8.62789062 2.08890625 9.63078125 2.0703125 10.6640625 C2.03550781 11.82035156 2.03550781 11.82035156 2 13 C2.66 13.33 3.32 13.66 4 14 C3.34 14.66 2.68 15.32 2 16 C-0.00349261 15.68834559 -2.00326516 15.35236497 -4 15 C-4.9075 15.185625 -5.815 15.37125 -6.75 15.5625 C-7.4925 15.706875 -8.235 15.85125 -9 16 C-11 14 -11 14 -11.125 11.375 C-11.08375 10.59125 -11.0425 9.8075 -11 9 C-5.25 6 -5.25 6 -3 6 C-3.33 4.68 -3.66 3.36 -4 2 C-4.66 2 -5.32 2 -6 2 C-6.33 2.99 -6.66 3.98 -7 5 C-8.32 5 -9.64 5 -11 5 C-11 4.01 -11 3.02 -11 2 C-6.93901493 -0.36103783 -4.54926865 -1.64279146 0 0 Z " transform="translate(305,54)" style="fill: #0A3687;"/><path d="M0 0 C1.32229189 2.64458379 1.09677194 4.67761301 1.0625 7.625 C1.05347656 8.62789062 1.04445312 9.63078125 1.03515625 10.6640625 C1.02355469 11.43492188 1.01195312 12.20578125 1 13 C1.99 13.33 2.98 13.66 4 14 C1 16 1 16 -1.375 15.5625 C-2.24125 15.376875 -3.1075 15.19125 -4 15 C-4.86625 15.20625 -5.7325 15.4125 -6.625 15.625 C-9 16 -9 16 -10.875 14.875 C-12 13 -12 13 -11.6875 10.3125 C-11.460625 9.549375 -11.23375 8.78625 -11 8 C-10.01 8 -9.02 8 -8 8 C-8 9.32 -8 10.64 -8 12 C-6.35 12.33 -4.7 12.66 -3 13 C-3 11.02 -3 9.04 -3 7 C-3.66 6.67 -4.32 6.34 -5 6 C-4.67 4.35 -4.34 2.7 -4 1 C-4.99 1.33 -5.98 1.66 -7 2 C-7.33 2.99 -7.66 3.98 -8 5 C-9.32 4.67 -10.64 4.34 -12 4 C-7.70811013 -0.43495286 -6.17621209 -1.44549645 0 0 Z " transform="translate(165,54)" style="fill: #173C8A;"/><path d="M0 0 C0.99 0 1.98 0 3 0 C2.88394727 3.82974007 1.52703427 5.85454641 -1 8.5625 C-8.57036283 15.53881021 -16.15346185 16.80658 -26.2265625 16.3984375 C-31.12660947 15.88104124 -33.97419455 14.79341603 -38 12 C-38.33 11.34 -38.66 10.68 -39 10 C-33.66666667 9.33333333 -28.33333333 8.66666667 -23 8 C-22.34 10.31 -21.68 12.62 -21 15 C-11.3130825 13.49763085 -4.86124395 9.87604656 1 2 C0.505 1.01 0.505 1.01 0 0 Z " transform="translate(69,80)" style="fill: #EAE5E9;"/><path d="M0 0 C0 7.92 0 15.84 0 24 C0.66 24.33 1.32 24.66 2 25 C-0.97 25 -3.94 25 -7 25 C-6.34 24.67 -5.68 24.34 -5 24 C-5 17.07 -5 10.14 -5 3 C-5.66 3 -6.32 3 -7 3 C-7 2.34 -7 1.68 -7 1 C-4.50935112 0.31292445 -2.62113708 0 0 0 Z " transform="translate(177,44)" style="fill: #143E8B;"/><path d="M0 0 C3.63 0 7.26 0 11 0 C10.34 0.66 9.68 1.32 9 2 C8.69054094 4.00021969 8.69054094 4.00021969 8.734375 6.28125 C8.73179687 7.12300781 8.72921875 7.96476562 8.7265625 8.83203125 C8.73429688 9.71246094 8.74203125 10.59289063 8.75 11.5 C8.74226562 12.38042969 8.73453125 13.26085938 8.7265625 14.16796875 C8.72914063 15.00972656 8.73171875 15.85148437 8.734375 16.71875 C8.73663086 17.49154297 8.73888672 18.26433594 8.74121094 19.06054688 C8.83175627 21.23667061 8.83175627 21.23667061 11 23 C7.37 23 3.74 23 0 23 C0.66 22.34 1.32 21.68 2 21 C2.30945906 18.99978031 2.30945906 18.99978031 2.265625 16.71875 C2.26820313 15.87699219 2.27078125 15.03523438 2.2734375 14.16796875 C2.26570312 13.28753906 2.25796875 12.40710937 2.25 11.5 C2.25773438 10.61957031 2.26546875 9.73914062 2.2734375 8.83203125 C2.26957031 7.56939453 2.26957031 7.56939453 2.265625 6.28125 C2.26336914 5.50845703 2.26111328 4.73566406 2.25878906 3.93945312 C2.16824373 1.76332939 2.16824373 1.76332939 0 0 Z " transform="translate(193,46)" style="fill: #0D3586;"/><path d="M0 0 C0 7.92 0 15.84 0 24 C0.66 24.33 1.32 24.66 2 25 C-0.97 25 -3.94 25 -7 25 C-6.34 24.67 -5.68 24.34 -5 24 C-5 17.07 -5 10.14 -5 3 C-5.66 3 -6.32 3 -7 3 C-7 2.34 -7 1.68 -7 1 C-1.125 0 -1.125 0 0 0 Z " transform="translate(113,44)" style="fill: #1D408A;"/><path d="M0 0 C0.99 0 1.98 0 3 0 C3 0.99 3 1.98 3 3 C3.66 3 4.32 3 5 3 C4.67 2.01 4.34 1.02 4 0 C15.22 0 26.44 0 38 0 C37.34 0.33 36.68 0.66 36 1 C36 1.66 36 2.32 36 3 C34.68 3.33 33.36 3.66 32 4 C32 3.34 32 2.68 32 2 C31.34 1.67 30.68 1.34 30 1 C30 2.98 30 4.96 30 7 C29.67 7 29.34 7 29 7 C29 5.02 29 3.04 29 1 C28.34 1 27.68 1 27 1 C27 2.65 27 4.3 27 6 C26.34 6 25.68 6 25 6 C24 3 24 3 25 1 C24.34 1 23.68 1 23 1 C23 2.32 23 3.64 23 5 C22.34 5 21.68 5 21 5 C21 3.68 21 2.36 21 1 C20.34 1 19.68 1 19 1 C19.66 2.98 20.32 4.96 21 7 C20.01 6.67 19.02 6.34 18 6 C18 4.35 18 2.7 18 1 C15.36 1 12.72 1 10 1 C10 3.31 10 5.62 10 8 C9.34 7.67 8.68 7.34 8 7 C8 5.02 8 3.04 8 1 C7.34 1 6.68 1 6 1 C6 2.98 6 4.96 6 7 C3 7 3 7 0 6 C0.66 5.34 1.32 4.68 2 4 C1.34 2.68 0.68 1.36 0 0 Z " transform="translate(117,79)" style="fill: #25408D;"/><path d="M0 0 C1.134375 0.020625 2.26875 0.04125 3.4375 0.0625 C2.7775 0.7225 2.1175 1.3825 1.4375 2.0625 C1.12804094 4.06271969 1.12804094 4.06271969 1.171875 6.34375 C1.16929687 7.18550781 1.16671875 8.02726562 1.1640625 8.89453125 C1.17179688 9.77496094 1.17953125 10.65539063 1.1875 11.5625 C1.17976562 12.44292969 1.17203125 13.32335938 1.1640625 14.23046875 C1.16664063 15.07222656 1.16921875 15.91398437 1.171875 16.78125 C1.17413086 17.55404297 1.17638672 18.32683594 1.17871094 19.12304688 C1.26925627 21.29917061 1.26925627 21.29917061 3.4375 23.0625 C0.1375 23.0625 -3.1625 23.0625 -6.5625 23.0625 C-5.9025 22.4025 -5.2425 21.7425 -4.5625 21.0625 C-4.30172461 18.94573538 -4.30172461 18.94573538 -4.40234375 16.52734375 C-4.4187793 15.19026367 -4.4187793 15.19026367 -4.43554688 13.82617188 C-4.45681641 12.89353516 -4.47808594 11.96089844 -4.5 11 C-4.5342838 9.15502339 -4.56445831 7.30996425 -4.58984375 5.46484375 C-4.60781006 4.64491943 -4.62577637 3.82499512 -4.64428711 2.98022461 C-4.49572925 -0.50312471 -3.5909864 0.06299976 0 0 Z " transform="translate(232.5625,45.9375)" style="fill: #073184;"/><path d="M0 0 C8.70057407 -0.6727248 14.55361975 0.38719808 22 5 C19.34138349 5.8862055 16.67813202 6.73753969 14 7.5625 C13.13375 7.83191406 12.2675 8.10132813 11.375 8.37890625 C9 9 9 9 6 9 C5.67 6.36 5.34 3.72 5 1 C3.35 1 1.7 1 0 1 C0 0.67 0 0.34 0 0 Z " transform="translate(42,40)" style="fill: #F4EFF0;"/><path d="M0 0 C10.23 0 20.46 0 31 0 C30.67 2.31 30.34 4.62 30 7 C29.67 6.01 29.34 5.02 29 4 C27.02 4 25.04 4 23 4 C23.33 3.34 23.66 2.68 24 2 C23.34 1.67 22.68 1.34 22 1 C22 3.31 22 5.62 22 8 C21.67 7.34 21.34 6.68 21 6 C18.97536745 5.34786708 18.97536745 5.34786708 17 5 C17.99 5 18.98 5 20 5 C19.01 4.67 18.02 4.34 17 4 C17 3.34 17 2.68 17 2 C16.34 1.67 15.68 1.34 15 1 C15 2.98 15 4.96 15 7 C14.67 7 14.34 7 14 7 C14 5.02 14 3.04 14 1 C13.01 1 12.02 1 11 1 C11 2.98 11 4.96 11 7 C9.68 6.01 8.36 5.02 7 4 C6.01 4.495 6.01 4.495 5 5 C5 4.01 5 3.02 5 2 C4.34 1.67 3.68 1.34 3 1 C3 2.65 3 4.3 3 6 C2.01 5.01 1.02 4.02 0 3 C0.66 3 1.32 3 2 3 C2 2.34 2 1.68 2 1 C1.34 0.67 0.68 0.34 0 0 Z " transform="translate(81,79)" style="fill: #183386;"/><path d="M0 0 C1.48828125 1.14453125 1.48828125 1.14453125 3 3 C3.29296875 5.69921875 3.29296875 5.69921875 3.1875 8.6875 C3.16042969 9.68136719 3.13335937 10.67523438 3.10546875 11.69921875 C3.07066406 12.45847656 3.03585937 13.21773437 3 14 C3.66 14 4.32 14 5 14 C5 14.66 5 15.32 5 16 C2.03 16 -0.94 16 -4 16 C-4 15.34 -4 14.68 -4 14 C-3.34 14 -2.68 14 -2 14 C-2.33 9.71 -2.66 5.42 -3 1 C-2.01 0.67 -1.02 0.34 0 0 Z " transform="translate(325,54)" style="fill: #0A3486;"/><path d="M0 0 C3.375 -0.125 3.375 -0.125 7 0 C9 2 9 2 9.1953125 4.6015625 C9.17210937 5.59929688 9.14890625 6.59703125 9.125 7.625 C9.10695312 8.62789062 9.08890625 9.63078125 9.0703125 10.6640625 C9.03550781 11.82035156 9.03550781 11.82035156 9 13 C8.67 13 8.34 13 8 13 C7.67 11.35 7.34 9.7 7 8 C6.67 8.33 6.34 8.66 6 9 C4.00041636 9.04080783 1.99954746 9.04254356 0 9 C0 6.03 0 3.06 0 0 Z " transform="translate(246,48)" style="fill: #E0E4ED;"/><path d="M0 0 C0 0.66 0 1.32 0 2 C2.97 2.33 5.94 2.66 9 3 C8.54625 3.598125 8.0925 4.19625 7.625 4.8125 C6.36704087 6.50590652 5.17015276 8.24477086 4 10 C4 9.34 4 8.68 4 8 C3.01 7.67 2.02 7.34 1 7 C1 6.34 1 5.68 1 5 C0.34 4.67 -0.32 4.34 -1 4 C-1 6.31 -1 8.62 -1 11 C-1.33 10.34 -1.66 9.68 -2 9 C-4.52733235 8.34444881 -4.52733235 8.34444881 -7 8 C-7 4 -7 4 -5 2 C-5.33 1.34 -5.66 0.68 -6 0 C-3.50907189 -1.24546405 -2.58919267 -0.7767578 0 0 Z " transform="translate(166,76)" style="fill: #24408D;"/><path d="M0 0 C1.65 0.33 3.3 0.66 5 1 C5 4.63 5 8.26 5 12 C3.68 12.33 2.36 12.66 1 13 C-1 11 -1 11 -1.23046875 8.65234375 C-1.21628906 7.75644531 -1.20210938 6.86054687 -1.1875 5.9375 C-1.18105469 5.03902344 -1.17460938 4.14054687 -1.16796875 3.21484375 C-1 1 -1 1 0 0 Z " transform="translate(122,55)" style="fill: #F6F7F9;"/><path d="M0 0 C1.65 0 3.3 0 5 0 C5 1.32 5 2.64 5 4 C5.33 3.34 5.66 2.68 6 2 C7.47906892 1.97310784 8.95827483 1.95365379 10.4375 1.9375 C11.26121094 1.92589844 12.08492188 1.91429688 12.93359375 1.90234375 C15 2 15 2 16 3 C16.66 2.01 17.32 1.02 18 0 C18.33 0.66 18.66 1.32 19 2 C19.66 2.33 20.32 2.66 21 3 C21 3.99 21 4.98 21 6 C8.97560976 7.65853659 8.97560976 7.65853659 4 6 C2.8125 3.4375 2.8125 3.4375 2 1 C2 2.65 2 4.3 2 6 C1.67 6 1.34 6 1 6 C0.67 4.02 0.34 2.04 0 0 Z " transform="translate(298,92)" style="fill: #6B7BAC;"/><path d="M0 0 C2.0625 0.4375 2.0625 0.4375 4 1 C4.08086147 2.79093191 4.13912702 4.58289628 4.1875 6.375 C4.22230469 7.37273438 4.25710938 8.37046875 4.29296875 9.3984375 C4.19628906 10.25695312 4.09960938 11.11546875 4 12 C0.68629 14.20914 -0.3446021 14.22481553 -4.1875 14.125 C-5.08855469 14.10695313 -5.98960937 14.08890625 -6.91796875 14.0703125 C-7.60503906 14.04710938 -8.29210937 14.02390625 -9 14 C-8.67 13.34 -8.34 12.68 -8 12 C-5.69 12 -3.38 12 -1 12 C-1.01160156 11.21753906 -1.02320313 10.43507813 -1.03515625 9.62890625 C-1.04417969 8.61699219 -1.05320312 7.60507812 -1.0625 6.5625 C-1.07410156 5.55316406 -1.08570313 4.54382812 -1.09765625 3.50390625 C-1 1 -1 1 0 0 Z " transform="translate(319,56)" style="fill: #E6E8F1;"/><path d="M0 0 C1.98 0 3.96 0 6 0 C6 3.3 6 6.6 6 10 C5.34 10 4.68 10 4 10 C4.02320313 10.84304687 4.04640625 11.68609375 4.0703125 12.5546875 C4.08835938 13.65039062 4.10640625 14.74609375 4.125 15.875 C4.14820313 16.96554688 4.17140625 18.05609375 4.1953125 19.1796875 C4 22 4 22 2 24 C2 16.74 2 9.48 2 2 C1.34 2 0.68 2 0 2 C0 1.34 0 0.68 0 0 Z " transform="translate(133,45)" style="fill: #113B88;"/><path d="M0 0 C0.33 0.66 0.66 1.32 1 2 C-0.98 2.99 -2.96 3.98 -5 5 C-3.5140084 9.59306496 -1.14985318 12.43569245 2 16 C-1.1875 16.5 -1.1875 16.5 -5 16 C-7.15024236 13.57299378 -8.59103494 10.90883109 -10 8 C-9.505 7.401875 -9.01 6.80375 -8.5 6.1875 C-6.71723582 4.02970006 -6.71723582 4.02970006 -7 1 C-3.535 0.505 -3.535 0.505 0 0 Z " transform="translate(348,53)" style="fill: #0D3587;"/><path d="M0 0 C5 1 5 1 6 2 C6.27314815 7.73611111 6.27314815 7.73611111 6 10 C4 12 4 12 0 12 C0 8.04 0 4.08 0 0 Z " transform="translate(140,56)" style="fill: #F4F5F8;"/><path d="M0 0 C0.99 0.33 1.98 0.66 3 1 C2.67 1.33 2.34 1.66 2 2 C1.92769007 4.81556784 2.00376369 7.61792211 2.0625 10.43359375 C2 13 2 13 1 15 C-2.875 13.125 -2.875 13.125 -4 12 C-4.59479554 4.74349442 -4.59479554 4.74349442 -2 1.5 C-1.34 1.005 -0.68 0.51 0 0 Z " transform="translate(120,54)" style="fill: #0E3687;"/><path d="M0 0 C5.875 0.875 5.875 0.875 7 2 C7.25 4.9375 7.25 4.9375 7 8 C6.01 8.66 5.02 9.32 4 10 C2.68 9.67 1.36 9.34 0 9 C0 6.03 0 3.06 0 0 Z " transform="translate(280,58)" style="fill: #F3F5F8;"/><path d="M0 0 C3.63 0 7.26 0 11 0 C11 0.66 11 1.32 11 2 C10.34 2 9.68 2 9 2 C9 4.97 9 7.94 9 11 C7.68 10.67 6.36 10.34 5 10 C5 7.69 5 5.38 5 3 C3.35 2.67 1.7 2.34 0 2 C0 1.34 0 0.68 0 0 Z " transform="translate(95,58)" style="fill: #24478F;"/><path d="M0 0 C3.04386724 -0.08226668 5.07175348 0.02391783 8 1 C9.66362417 1.34820041 11.32995171 1.68404492 13 2 C12.01 2.495 12.01 2.495 11 3 C11.33 4.32 11.66 5.64 12 7 C7.32538149 7.32613618 4.83325617 6.70582788 1 4 C0.67 4.66 0.34 5.32 0 6 C0 4.02 0 2.04 0 0 Z " transform="translate(323,92)" style="fill: #96A1C5;"/><path d="M0 0 C1.24265625 0.01546875 2.4853125 0.0309375 3.765625 0.046875 C6.75 0.25 6.75 0.25 7.75 1.25 C7.79080783 3.24958364 7.79254356 5.25045254 7.75 7.25 C7.09 7.25 6.43 7.25 5.75 7.25 C5.46125 6.610625 5.1725 5.97125 4.875 5.3125 C3.92176549 3.09793921 3.92176549 3.09793921 1.75 2.25 C-2.83222181 1.85154593 -4.75782842 2.33985702 -8.25 5.25 C-10.5 5.9375 -10.5 5.9375 -12.25 6.25 C-12.25 5.26 -12.25 4.27 -12.25 3.25 C-8.29355324 0.01839845 -4.99166799 -0.1044282 0 0 Z " transform="translate(96.25,45.75)" style="fill: #1E3A8A;"/><path d="M0 0 C0.99 0.33 1.98 0.66 3 1 C2.01 1.99 1.02 2.98 0 4 C3.3 4 6.6 4 10 4 C9.67 6.31 9.34 8.62 9 11 C8.67 10.01 8.34 9.02 8 8 C4.88214887 8.64644661 4.88214887 8.64644661 4 11 C3.34 9.68 2.68 8.36 2 7 C2.33 6.67 2.66 6.34 3 6 C2.34 5.67 1.68 5.34 1 5 C1 7.31 1 9.62 1 12 C0.34 11.67 -0.32 11.34 -1 11 C-2.36817102 4.95724466 -2.36817102 4.95724466 -1.0625 1.5625 C-0.711875 1.046875 -0.36125 0.53125 0 0 Z " transform="translate(181,75)" style="fill: #304790;"/><path d="M0 0 C0.99 0.33 1.98 0.66 3 1 C3.21133202 8.04440079 3.07965362 14.24112575 1 21 C0.67 21 0.34 21 0 21 C-0.19592461 17.68794116 -0.38032746 14.37534146 -0.5625 11.0625 C-0.61857422 10.11697266 -0.67464844 9.17144531 -0.73242188 8.19726562 C-0.78076172 7.29814453 -0.82910156 6.39902344 -0.87890625 5.47265625 C-0.9260376 4.64000244 -0.97316895 3.80734863 -1.02172852 2.94946289 C-1 1 -1 1 0 0 Z " transform="translate(109,46)" style="fill: #073A88;"/><path d="M0 0 C2.64 0 5.28 0 8 0 C8 0.66 8 1.32 8 2 C10.31 2 12.62 2 15 2 C15.33 3.32 15.66 4.64 16 6 C12.69978999 6.8250525 10.17546695 7.42348518 7 6 C5.875 4 5.875 4 5 2 C4.34 1.67 3.68 1.34 3 1 C3 2.65 3 4.3 3 6 C2.67 6 2.34 6 2 6 C2 4.35 2 2.7 2 1 C1.34 0.67 0.68 0.34 0 0 Z " transform="translate(279,92)" style="fill: #7686B2;"/><path d="M0 0 C0.33 0 0.66 0 1 0 C1 4.62 1 9.24 1 14 C1.99 14.33 2.98 14.66 4 15 C4 16.65 4 18.3 4 20 C4.66 20.33 5.32 20.66 6 21 C3.03 21 0.06 21 -3 21 C-2.34 20.34 -1.68 19.68 -1 19 C-0.63105418 16.96939341 -0.63105418 16.96939341 -0.5859375 14.6484375 C-0.54726563 13.79765625 -0.50859375 12.946875 -0.46875 12.0703125 C-0.4378125 11.18085937 -0.406875 10.29140625 -0.375 9.375 C-0.33632813 8.4778125 -0.29765625 7.580625 -0.2578125 6.65625 C-0.16340643 4.4377073 -0.07783252 2.21917597 0 0 Z " transform="translate(334,48)" style="fill: #073686;"/><path d="M0 0 C2 2 2 2 2.25 5 C2 8 2 8 0 10 C-3.125 9.625 -3.125 9.625 -6 9 C-6.33 7.68 -6.66 6.36 -7 5 C-4.35261084 3.5393715 -3.10551666 3 0 3 C0 2.01 0 1.02 0 0 Z " transform="translate(303,57)" style="fill: #677FB2;"/><path d="M0 0 C1.70840281 1.63412443 2.93453047 2.86906094 4 5 C4.33 3.35 4.66 1.7 5 0 C6.32 0 7.64 0 9 0 C9 2.31 9 4.62 9 7 C7.741875 7.020625 6.48375 7.04125 5.1875 7.0625 C4.47980469 7.07410156 3.77210938 7.08570312 3.04296875 7.09765625 C1 7 1 7 -2 6 C-1.34 4.02 -0.68 2.04 0 0 Z " transform="translate(341,92)" style="fill: #7080B1;"/><path d="M0 0 C0.99 0 1.98 0 3 0 C3.07347656 1.04800781 3.07347656 1.04800781 3.1484375 2.1171875 C3.22320312 3.02726562 3.29796875 3.93734375 3.375 4.875 C3.44460937 5.77992187 3.51421875 6.68484375 3.5859375 7.6171875 C3.79568132 10.17941903 3.79568132 10.17941903 6 12 C5.01 12 4.02 12 3 12 C3 15.3 3 18.6 3 22 C2.01 22.33 1.02 22.66 0 23 C0 19.04 0 15.08 0 11 C0.66 11 1.32 11 2 11 C2 7.7 2 4.4 2 1 C1.34 0.67 0.68 0.34 0 0 Z M-1 23 C-0.34 23.66 0.32 24.32 1 25 C0.34 25 -0.32 25 -1 25 C-1 24.34 -1 23.68 -1 23 Z " transform="translate(137,44)" style="fill: #3D5A99;"/><path d="M0 0 C0.57105469 0.34933594 1.14210938 0.69867188 1.73046875 1.05859375 C8.78349797 5.01681206 14.97303018 5.86160397 23 6 C18.34690493 8.58390899 13.89205827 8.79905353 8.80859375 7.39453125 C5.53085308 6.20536935 2.92237907 4.94825271 0 3 C0 2.01 0 1.02 0 0 Z " transform="translate(29,90)" style="fill: #364289;"/><path d="M0 0 C2.25 0.9375 2.25 0.9375 3.5625 3 C3.9028125 3.9590625 3.9028125 3.9590625 4.25 4.9375 C3.26 4.9375 2.27 4.9375 1.25 4.9375 C0.59 5.5975 -0.07 6.2575 -0.75 6.9375 C-1.08 5.6175 -1.41 4.2975 -1.75 2.9375 C-2.41 2.9375 -3.07 2.9375 -3.75 2.9375 C-4.08 3.9275 -4.41 4.9175 -4.75 5.9375 C-6.07 5.9375 -7.39 5.9375 -8.75 5.9375 C-8.75 4.9475 -8.75 3.9575 -8.75 2.9375 C-3.55839895 -0.0808727 -3.55839895 -0.0808727 0 0 Z " transform="translate(302.75,53.0625)" style="fill: #22428E;"/><path d="M0 0 C2.475 0.495 2.475 0.495 5 1 C5.625 3.375 5.625 3.375 6 6 C4 8 4 8 0 8 C0 5.36 0 2.72 0 0 Z " transform="translate(280,48)" style="fill: #F8F9FB;"/><path d="M0 0 C0.66 0.33 1.32 0.66 2 1 C2 4.63 2 8.26 2 12 C2.66 12 3.32 12 4 12 C4 12.66 4 13.32 4 14 C1.03 14 -1.94 14 -5 14 C-4.67 13.34 -4.34 12.68 -4 12 C-2.68 12 -1.36 12 0 12 C0 8.04 0 4.08 0 0 Z " transform="translate(326,56)" style="fill: #4B65A0;"/><path d="M0 0 C7.1191234 -0.8089913 12.62116486 2.06720223 19 5 C19 5.99 19 6.98 19 8 C18.29875 7.65066406 17.5975 7.30132812 16.875 6.94140625 C11.13029932 4.18613541 6.37216298 2.36068847 0 2 C0 1.34 0 0.68 0 0 Z " transform="translate(46,38)" style="fill: #C51D19;"/><path d="M0 0 C0.99 0.33 1.98 0.66 3 1 C4.33363703 1.14403348 5.67218046 1.24590423 7.01171875 1.31640625 C8.14770508 1.37924805 8.14770508 1.37924805 9.30664062 1.44335938 C10.48516602 1.50233398 10.48516602 1.50233398 11.6875 1.5625 C12.88342773 1.62727539 12.88342773 1.62727539 14.10351562 1.69335938 C16.06881447 1.79927368 18.03438496 1.90012551 20 2 C20 2.33 20 2.66 20 3 C9.77 3 -0.46 3 -11 3 C-11 2.67 -11 2.34 -11 2 C-7.37 2 -3.74 2 0 2 C0 1.34 0 0.68 0 0 Z " transform="translate(92,76)" style="fill: #ABB6CF;"/><path d="M0 0 C1.65 0 3.3 0 5 0 C4.01 0.33 3.02 0.66 2 1 C2 1.66 2 2.32 2 3 C3.65 3.33 5.3 3.66 7 4 C6.67 4.99 6.34 5.98 6 7 C4.02 7 2.04 7 0 7 C0 4.69 0 2.38 0 0 Z " transform="translate(147,80)" style="fill: #949EC3;"/><path d="M0 0 C0.33 0 0.66 0 1 0 C1.042721 1.66611905 1.04063832 3.33382885 1 5 C0 6 0 6 -1.85766602 6.11352539 C-2.64842529 6.10828857 -3.43918457 6.10305176 -4.25390625 6.09765625 C-5.10791016 6.09443359 -5.96191406 6.09121094 -6.84179688 6.08789062 C-7.73962891 6.07951172 -8.63746094 6.07113281 -9.5625 6.0625 C-10.46419922 6.05798828 -11.36589844 6.05347656 -12.29492188 6.04882812 C-14.53001314 6.03700225 -16.76497437 6.0205222 -19 6 C-14.47187459 3.51795247 -10.85314589 4.00660409 -5.77734375 4.3203125 C-2.86444449 4.29461001 -2.86444449 4.29461001 -1.19140625 1.9921875 C-0.79824219 1.33476563 -0.40507812 0.67734375 0 0 Z " transform="translate(257,63)" style="fill: #0C2983;"/><path d="M0 0 C0.33 0 0.66 0 1 0 C1 1.98 1 3.96 1 6 C1.66 6 2.32 6 3 6 C2.625 7.9375 2.625 7.9375 2 10 C-0.70879335 11.35439668 -3.00933268 11.06501451 -6 11 C-6 10.01 -6 9.02 -6 8 C-4.35 8 -2.7 8 -1 8 C-0.67 5.36 -0.34 2.72 0 0 Z " transform="translate(127,59)" style="fill: #345295;"/><path d="M0 0 C2.0625 0.4375 2.0625 0.4375 4 1 C4.33 3.31 4.66 5.62 5 8 C0.125 7.125 0.125 7.125 -1 6 C-1.125 3.5 -1.125 3.5 -1 1 C-0.67 0.67 -0.34 0.34 0 0 Z " transform="translate(295,62)" style="fill: #1C428D;"/><path d="M0 0 C1.98 0 3.96 0 6 0 C6 1.98 6 3.96 6 6 C4.35 5.67 2.7 5.34 1 5 C0.67 3.35 0.34 1.7 0 0 Z " transform="translate(156,61)" style="fill: #A2ADCC;"/><path d="M0 0 C0.33 0 0.66 0 1 0 C1.33 3.96 1.66 7.92 2 12 C3.32 12 4.64 12 6 12 C6 12.66 6 13.32 6 14 C3.69 14 1.38 14 -1 14 C-0.67 9.38 -0.34 4.76 0 0 Z " transform="translate(138,56)" style="fill: #18438D;"/><path d="M0 0 C1.65 0 3.3 0 5 0 C5.33 1.98 5.66 3.96 6 6 C3.525 5.01 3.525 5.01 1 4 C0.67 4.66 0.34 5.32 0 6 C0 4.02 0 2.04 0 0 Z " transform="translate(323,92)" style="fill: #7786B3;"/><path d="M0 0 C0.99 0 1.98 0 3 0 C3 1.65 3 3.3 3 5 C1.02 5.66 -0.96 6.32 -3 7 C-3 6.01 -3 5.02 -3 4 C-2.34 4 -1.68 4 -1 4 C-0.67 2.68 -0.34 1.36 0 0 Z " transform="translate(158,55)" style="fill: #E8EBF1;"/><path d="M0 0 C0.99 0.33 1.98 0.66 3 1 C3 2.32 3 3.64 3 5 C1.02 5.66 -0.96 6.32 -3 7 C-3.33 6.01 -3.66 5.02 -4 4 C-3.01 4 -2.02 4 -1 4 C-0.67 2.68 -0.34 1.36 0 0 Z " transform="translate(299,55)" style="fill: #F1F3F7;"/><path d="M0 0 C0 2.31 0 4.62 0 7 C-0.33 6.34 -0.66 5.68 -1 5 C-3.52733235 4.34444881 -3.52733235 4.34444881 -6 4 C-5.67 3.01 -5.34 2.02 -5 1 C-3.28960011 0.41205004 -1.81522119 0 0 0 Z " transform="translate(165,80)" style="fill: #4A619E;"/><path d="M0 0 C0.33 0 0.66 0 1 0 C1.33 3.3 1.66 6.6 2 10 C2.99 10.33 3.98 10.66 5 11 C2.36 11 -0.28 11 -3 11 C-2.690625 10.484375 -2.38125 9.96875 -2.0625 9.4375 C-0.70940713 6.33334577 -0.38640576 3.34884993 0 0 Z " transform="translate(209,58)" style="fill: #0D2C83;"/><path d="M0 0 C0.66 0.33 1.32 0.66 2 1 C1.3125 2.9375 1.3125 2.9375 0 5 C-2.625 5.75 -2.625 5.75 -5 6 C-5 5.01 -5 4.02 -5 3 C-2.625 1.25 -2.625 1.25 0 0 Z " transform="translate(89,46)" style="fill: #324F94;"/><path d="M0 0 C1.32 0 2.64 0 4 0 C4 0.66 4 1.32 4 2 C5.65 2 7.3 2 9 2 C9 2.33 9 2.66 9 3 C5.7 3 2.4 3 -1 3 C-0.67 2.01 -0.34 1.02 0 0 Z " transform="translate(182,76)" style="fill: #BEC6DA;"/><path d="M0 0 C0.99 0.33 1.98 0.66 3 1 C5.00875442 0.72428861 7.01178687 0.39764263 9 0 C9 0.66 9 1.32 9 2 C6.69 2.66 4.38 3.32 2 4 C1.34 2.68 0.68 1.36 0 0 Z " transform="translate(316,53)" style="fill: #375196;"/><path d="M0 0 C0 1.98 0 3.96 0 6 C-0.37125 5.525625 -0.7425 5.05125 -1.125 4.5625 C-3.62646962 2.47794198 -5.81593418 2.35378509 -9 2 C-9 1.67 -9 1.34 -9 1 C-5.94152152 0.45627049 -3.11227195 0 0 0 Z " transform="translate(256,46)" style="fill: #1D408C;"/><path d="M0 0 C5.53846154 -0.36923077 5.53846154 -0.36923077 7.875 1.5 C8.24625 1.995 8.6175 2.49 9 3 C8.34 3 7.68 3 7 3 C6.67 3.66 6.34 4.32 6 5 C5.67 4.34 5.34 3.68 5 3 C3.35636866 2.27840576 1.68949614 1.60648579 0 1 C0 0.67 0 0.34 0 0 Z " transform="translate(121,53)" style="fill: #2B4890;"/><path d="M0 0 C2.25 0.25 2.25 0.25 4 1 C3.01 1.33 2.02 1.66 1 2 C0.67 2.99 0.34 3.98 0 5 C-1.32 4.67 -2.64 4.34 -4 4 C-2.25 1.9375 -2.25 1.9375 0 0 Z " transform="translate(157,54)" style="fill: #052B82;"/><path d="M0 0 C0.33 0.66 0.66 1.32 1 2 C-0.96466413 3.06775224 -2.96855359 4.06553465 -5 5 C-5.66 4.67 -6.32 4.34 -7 4 C-7 3.01 -7 2.02 -7 1 C-3.535 0.505 -3.535 0.505 0 0 Z " transform="translate(348,53)" style="fill: #233C8B;"/></svg>