<svg id="svg" version="1.1" xmlns="http://www.w3.org/2000/svg" style="display: block;" viewBox="0 0 800 450"><path d="M0 0 C264 0 528 0 800 0 C800 148.5 800 297 800 450 C536 450 272 450 0 450 C0 301.5 0 153 0 0 Z " transform="translate(0,0)" style="fill: #30A54C;"/><path d="M0 0 C34.19295852 0 34.19295852 0 42.3125 7.4375 C44.6855669 10.26371535 45.91232846 12.23012388 46 16 C46.10634766 17.14855469 46.10634766 17.14855469 46.21484375 18.3203125 C46.48525257 22.73918831 46.60632475 25.9314042 43.6875 29.4375 C42.800625 30.283125 41.91375 31.12875 41 32 C40.401875 32.61875 39.80375 33.2375 39.1875 33.875 C38.795625 34.24625 38.40375 34.6175 38 35 C38.825 35.04125 39.65 35.0825 40.5 35.125 C46.33285104 36.58321276 50.48439084 39.91603741 54 44.75 C55.74854261 50.43276348 55.78993161 55.67409025 53.875 61.3125 C49.75016003 67.22477062 44.83978198 70.13917696 38 72 C25.50135142 74.0831081 12.67105187 73 0 73 C0 48.91 0 24.82 0 0 Z " transform="translate(242,188)" style="fill: #F4FAF4;"/><path d="M0 0 C34.75115207 0 34.75115207 0 44 9 C46.50172711 13.90723394 46.68106388 18.60193811 46 24 C44.66969582 27.92619504 43.01438831 30.46975157 39.25 32.4375 C38.5075 32.623125 37.765 32.80875 37 33 C37 33.66 37 34.32 37 35 C37.64066406 35.0515625 38.28132813 35.103125 38.94140625 35.15625 C45.57324962 36.02599995 48.61349755 37.86527687 52.72265625 43.125 C55.89864015 47.78699472 55.50930488 52.51166984 55 58 C53.41312318 64.05068141 48.99465166 66.696697 43.828125 69.73828125 C29.73727572 76.02466843 15.80191364 73 0 73 C0 48.91 0 24.82 0 0 Z " transform="translate(417,188)" style="fill: #E9FAE9;"/><path d="M0 0 C2.2477975 2.05233685 3.0022242 3.00667261 4 6 C4.65802612 6.64412842 4.65802612 6.64412842 5.3293457 7.30126953 C7.64921869 9.66012913 9.07538018 12.31731169 10.73046875 15.1796875 C11.26164055 16.09260056 11.26164055 16.09260056 11.80354309 17.0239563 C12.93594545 18.97178092 14.06204757 20.9231529 15.1875 22.875 C16.65778813 25.41544068 18.13080707 27.95428328 19.60546875 30.4921875 C19.97207611 31.12366196 20.33868347 31.75513641 20.71640015 32.40574646 C23.74459366 37.60341508 26.88816932 42.72503566 30.0559082 47.83886719 C33.27814645 53.07829214 36.39398231 58.37860925 39.5 63.6875 C40.13164063 64.75677734 40.76328125 65.82605469 41.4140625 66.92773438 C42.30738281 68.45430664 42.30738281 68.45430664 43.21875 70.01171875 C43.75435547 70.92397217 44.28996094 71.83622559 44.84179688 72.77612305 C46 75 46 75 46 77 C41.87800216 77.54026185 38.10288927 77.76174 34 77 C31.10879035 74.455043 29.68670024 71.42098764 28 68 C27.05572355 66.51182031 26.09828863 65.03186927 25.125 63.5625 C23 60.25471698 23 60.25471698 23 58 C8.15 58 -6.7 58 -22 58 C-22.99 60.475 -22.99 60.475 -24 63 C-24.62160326 64.19790431 -25.26869398 65.38306864 -25.9453125 66.55078125 C-26.29980469 67.16630859 -26.65429688 67.78183594 -27.01953125 68.41601562 C-27.38433594 69.04185547 -27.74914062 69.66769531 -28.125 70.3125 C-28.49753906 70.95767578 -28.87007813 71.60285156 -29.25390625 72.26757812 C-30.16632213 73.84675945 -31.08275509 75.42361864 -32 77 C-36.29 77 -40.58 77 -45 77 C-44.14202385 73.5680954 -43.38580462 71.68576217 -41.62109375 68.74609375 C-41.1199707 67.90506104 -40.61884766 67.06402832 -40.10253906 66.19750977 C-39.55307617 65.28670654 -39.00361328 64.37590332 -38.4375 63.4375 C-37.25378767 61.45579999 -36.07019967 59.47402572 -34.88671875 57.4921875 C-34.25685059 56.4412793 -33.62698242 55.39037109 -32.97802734 54.30761719 C-30.94066754 50.90078547 -28.91507529 47.48713047 -26.89453125 44.0703125 C-26.55227005 43.49153854 -26.21000885 42.91276459 -25.8573761 42.31645203 C-25.16637304 41.14789339 -24.47537876 39.97932955 -23.78439331 38.8107605 C-20.86152158 33.87072354 -17.92985196 28.93589868 -15 24 C-14.50918945 23.17193848 -14.01837891 22.34387695 -13.51269531 21.49072266 C-9.18990948 14.20223016 -4.81978978 6.97451932 0 0 Z " transform="translate(529,185)" style="fill: #F0F8F1;"/><path d="M0 0 C3.12755785 1.56377892 5.15343339 2.79744272 7.7578125 4.9765625 C8.46075439 5.56091064 9.16369629 6.14525879 9.88793945 6.74731445 C10.62616943 7.36695068 11.36439941 7.98658691 12.125 8.625 C13.66239569 9.9027827 15.20015397 11.18012928 16.73828125 12.45703125 C17.47643066 13.07143066 18.21458008 13.68583008 18.97509766 14.31884766 C24.82121051 19.17251695 30.77310168 23.84778511 36.875 28.375 C42.01441777 32.20334181 46.93280822 36.23811974 51.83203125 40.3671875 C55.35319683 43.31550507 58.95105142 46.16343595 62.5625 49 C63.15853027 49.46905762 63.75456055 49.93811523 64.36865234 50.42138672 C66.86494031 52.37490974 69.36106774 54.24071183 72 56 C72 38.51 72 21.02 72 3 C75.96 3 79.92 3 84 3 C84 28.08 84 53.16 84 79 C81.01568904 77.50784452 79.0779673 76.3992191 76.6015625 74.34765625 C75.96436279 73.82397461 75.32716309 73.30029297 74.6706543 72.76074219 C73.99558838 72.20032227 73.32052246 71.63990234 72.625 71.0625 C71.18698515 69.88055198 69.74816828 68.69957913 68.30859375 67.51953125 C67.58655762 66.92736816 66.86452148 66.33520508 66.12060547 65.72509766 C63.00772448 63.19279083 59.8515577 60.71785892 56.6875 58.25 C52.58538273 55.04590142 48.5187398 51.80886022 44.5 48.5 C40.41267875 45.13784865 36.2861857 41.83233293 32.125 38.5625 C31.60873047 38.15644531 31.09246094 37.75039062 30.56054688 37.33203125 C24.40729593 32.51062059 18.19656414 27.7665878 12 23 C12 40.82 12 58.64 12 77 C8.04 77 4.08 77 0 77 C0 51.59 0 26.18 0 0 Z " transform="translate(582,185)" style="fill: #F4FAF5;"/><path d="M0 0 C2.95103591 1.47551795 4.87781701 2.5618612 7.328125 4.58203125 C7.95541504 5.09580322 8.58270508 5.6095752 9.22900391 6.13891602 C9.89593262 6.69119873 10.56286133 7.24348145 11.25 7.8125 C12.6796782 8.98438635 14.10936598 10.156261 15.5390625 11.328125 C17.02611799 12.55199061 18.51309669 13.77594952 20 15 C22.87148439 17.35849314 25.74729275 19.71160647 28.625 22.0625 C29.27500977 22.59786377 29.92501953 23.13322754 30.59472656 23.68481445 C34.27120956 26.68924704 38.03461922 29.37950091 42 32 C43.66666667 33.66666667 45.33333333 35.33333333 47 37 C49.05013538 38.67618365 51.14522896 40.28360386 53.25 41.890625 C55.38885736 43.53122582 57.51105933 45.18712048 59.625 46.859375 C60.25414307 47.35679199 60.88328613 47.85420898 61.53149414 48.36669922 C62.78932272 49.36207068 64.04633944 50.35846905 65.30249023 51.35595703 C68.49539175 53.9145641 68.49539175 53.9145641 72 56 C72 38.51 72 21.02 72 3 C75.96 3 79.92 3 84 3 C84 28.08 84 53.16 84 79 C80.95814311 77.47907155 78.96309452 76.30517423 76.42578125 74.20703125 C75.76320313 73.66304688 75.100625 73.1190625 74.41796875 72.55859375 C73.72316406 71.98238281 73.02835937 71.40617187 72.3125 70.8125 C70.86124714 69.62039943 69.40942947 68.4289861 67.95703125 67.23828125 C67.26561035 66.67061035 66.57418945 66.10293945 65.86181641 65.51806641 C63.76731525 63.81027619 61.64435147 62.14469676 59.5 60.5 C55.37497521 57.32569521 51.34530036 54.03995351 47.3125 50.75 C41.57786045 46.07211221 35.79915772 41.4588997 29.96508789 36.90576172 C25.2800237 33.24201848 20.683009 29.4820282 16.109375 25.6796875 C14.11042362 23.96883 14.11042362 23.96883 12 23 C12 40.49 12 57.98 12 76 C8.04 76 4.08 76 0 76 C0 50.92 0 25.84 0 0 Z " transform="translate(46,185)" style="fill: #FBFDFB;"/><path d="M0 0 C0.99 0 1.98 0 3 0 C3.495 1.98 3.495 1.98 4 4 C4.66 4 5.32 4 6 4 C7.76462683 7.08809695 8 8.23312136 8 12 C8.66 12 9.32 12 10 12 C12.15294651 17.28830549 14.27933894 22.55123997 16 28 C16.66 28 17.32 28 18 28 C18.99 31.96 18.99 31.96 20 36 C20.66 36 21.32 36 22 36 C22.99 39.96 22.99 39.96 24 44 C24.66 44 25.32 44 26 44 C26 44.66 26 45.32 26 46 C26.66 46 27.32 46 28 46 C28 47.98 28 49.96 28 52 C28.66 52 29.32 52 30 52 C30 53.32 30 54.64 30 56 C30.66 56 31.32 56 32 56 C32 57.32 32 58.64 32 60 C32.66 60 33.32 60 34 60 C34 61.32 34 62.64 34 64 C34.66 64 35.32 64 36 64 C36 64.66 36 65.32 36 66 C36.66 66 37.32 66 38 66 C38 67.32 38 68.64 38 70 C38.66 70 39.32 70 40 70 C40 71.98 40 73.96 40 76 C40.66 76 41.32 76 42 76 C42 76.66 42 77.32 42 78 C42.66 78 43.32 78 44 78 C44 79.32 44 80.64 44 82 C44.66 82 45.32 82 46 82 C46.20496094 82.55429688 46.40992188 83.10859375 46.62109375 83.6796875 C46.89050781 84.40414062 47.15992188 85.12859375 47.4375 85.875 C47.70433594 86.59429687 47.97117187 87.31359375 48.24609375 88.0546875 C48.97916854 90.03648845 48.97916854 90.03648845 50 92 C48.68 92 47.36 92 46 92 C46 91.34 46 90.68 46 90 C45.34 90 44.68 90 44 90 C42.98133771 88.34467377 41.98189187 86.67739862 41 85 C40.34 84.67 39.68 84.34 39 84 C39 83.34 39 82.68 39 82 C38.34 82 37.68 82 37 82 C37 81.34 37 80.68 37 80 C36.34 80 35.68 80 35 80 C35 79.34 35 78.68 35 78 C34.01 78 33.02 78 32 78 C32 76.68 32 75.36 32 74 C31.01 74 30.02 74 29 74 C29 73.34 29 72.68 29 72 C28.34 72 27.68 72 27 72 C26.67 70.68 26.34 69.36 26 68 C25.34 68 24.68 68 24 68 C24 67.34 24 66.68 24 66 C23.01 66 22.02 66 21 66 C21 65.34 21 64.68 21 64 C20.34 64 19.68 64 19 64 C18.505 62.02 18.505 62.02 18 60 C17.34 60 16.68 60 16 60 C16 59.34 16 58.68 16 58 C15.34 58 14.68 58 14 58 C14 57.34 14 56.68 14 56 C13.34 56 12.68 56 12 56 C12 55.34 12 54.68 12 54 C11.34 54 10.68 54 10 54 C10 53.34 10 52.68 10 52 C9.34 52 8.68 52 8 52 C8 51.34 8 50.68 8 50 C7.34 50 6.68 50 6 50 C6 49.34 6 48.68 6 48 C5.34 48 4.68 48 4 48 C4 47.34 4 46.68 4 46 C2.68 46 1.36 46 0 46 C0 46.66 0 47.32 0 48 C-0.66 48 -1.32 48 -2 48 C-2 48.66 -2 49.32 -2 50 C-2.66 50 -3.32 50 -4 50 C-4 50.66 -4 51.32 -4 52 C-4.66 52 -5.32 52 -6 52 C-6 52.66 -6 53.32 -6 54 C-6.66 54 -7.32 54 -8 54 C-8 54.66 -8 55.32 -8 56 C-8.66 56 -9.32 56 -10 56 C-10 56.66 -10 57.32 -10 58 C-10.66 58 -11.32 58 -12 58 C-12 58.66 -12 59.32 -12 60 C-12.66 60 -13.32 60 -14 60 C-14 60.66 -14 61.32 -14 62 C-14.66 62 -15.32 62 -16 62 C-16 62.66 -16 63.32 -16 64 C-16.66 64 -17.32 64 -18 64 C-18 64.66 -18 65.32 -18 66 C-18.66 66 -19.32 66 -20 66 C-20 66.66 -20 67.32 -20 68 C-20.66 68 -21.32 68 -22 68 C-22 68.66 -22 69.32 -22 70 C-22.66 70 -23.32 70 -24 70 C-24 70.66 -24 71.32 -24 72 C-24.66 72 -25.32 72 -26 72 C-26 72.66 -26 73.32 -26 74 C-26.66 74 -27.32 74 -28 74 C-28 74.66 -28 75.32 -28 76 C-28.66 76 -29.32 76 -30 76 C-30 76.66 -30 77.32 -30 78 C-30.66 78 -31.32 78 -32 78 C-32 78.66 -32 79.32 -32 80 C-32.66 80 -33.32 80 -34 80 C-34 80.66 -34 81.32 -34 82 C-34.66 82 -35.32 82 -36 82 C-36 82.66 -36 83.32 -36 84 C-36.66 84 -37.32 84 -38 84 C-38 84.66 -38 85.32 -38 86 C-38.66 86 -39.32 86 -40 86 C-40 87.32 -40 88.64 -40 90 C-40.66 90 -41.32 90 -42 90 C-42 90.66 -42 91.32 -42 92 C-43.32 92 -44.64 92 -46 92 C-45.34 90.02 -44.68 88.04 -44 86 C-43.34 86 -42.68 86 -42 86 C-41.34 83.36 -40.68 80.72 -40 78 C-39.34 78 -38.68 78 -38 78 C-38 76.68 -38 75.36 -38 74 C-37.34 74 -36.68 74 -36 74 C-36 72.68 -36 71.36 -36 70 C-35.34 70 -34.68 70 -34 70 C-33.79503906 69.30132812 -33.59007812 68.60265625 -33.37890625 67.8828125 C-33.10949219 66.97273438 -32.84007812 66.06265625 -32.5625 65.125 C-32.16224609 63.76761719 -32.16224609 63.76761719 -31.75390625 62.3828125 C-31 60 -31 60 -30 58 C-29.34 58 -28.68 58 -28 58 C-28 56.68 -28 55.36 -28 54 C-27.34 54 -26.68 54 -26 54 C-25.69255859 52.95199219 -25.69255859 52.95199219 -25.37890625 51.8828125 C-25.10949219 50.97273438 -24.84007812 50.06265625 -24.5625 49.125 C-24.29566406 48.22007812 -24.02882812 47.31515625 -23.75390625 46.3828125 C-23 44 -23 44 -22 42 C-21.34 42 -20.68 42 -20 42 C-20 40.68 -20 39.36 -20 38 C-19.34 38 -18.68 38 -18 38 C-17.34 35.36 -16.68 32.72 -16 30 C-15.34 30 -14.68 30 -14 30 C-14 28.68 -14 27.36 -14 26 C-13.34 26 -12.68 26 -12 26 C-12 24.68 -12 23.36 -12 22 C-11.34 22 -10.68 22 -10 22 C-9.79503906 21.30132812 -9.59007812 20.60265625 -9.37890625 19.8828125 C-9.10949219 18.97273438 -8.84007812 18.06265625 -8.5625 17.125 C-8.29566406 16.22007812 -8.02882812 15.31515625 -7.75390625 14.3828125 C-7 12 -7 12 -6 10 C-5.34 10 -4.68 10 -4 10 C-4 8.68 -4 7.36 -4 6 C-3.34 6 -2.68 6 -2 6 C-1.34 4.02 -0.68 2.04 0 0 Z " transform="translate(184,172)" style="fill: #E4332D;"/><path d="M0 0 C3.96 0 7.92 0 12 0 C12 10.23 12 20.46 12 31 C12.66 31 13.32 31 14 31 C14 30.34 14 29.68 14 29 C15.86155454 27.41569827 17.7257834 25.95144831 19.6875 24.5 C20.88679901 23.59515846 22.08601549 22.6902075 23.28515625 21.78515625 C23.90277832 21.32254395 24.52040039 20.85993164 25.15673828 20.38330078 C27.4499361 18.66233935 29.73050377 16.92557452 32.00439453 15.17919922 C33.0884771 14.34858097 34.17674816 13.52340211 35.26904297 12.70361328 C37.90052278 10.71083449 40.33266084 8.67600471 42.69921875 6.37109375 C48.29190217 1.02920331 52.08285218 -0.72809114 59.6875 -0.5625 C62.14149877 -0.44667543 64.55413978 -0.24857551 67 0 C63.35376335 3.78962798 59.52972946 7.09424978 55.375 10.3125 C54.45412598 11.03143433 54.45412598 11.03143433 53.51464844 11.76489258 C48.95665586 15.30520155 44.30992755 18.70912704 39.62109375 22.07421875 C35.30475872 25.24553495 31.14990313 28.61526339 27 32 C28.3262774 34.97325963 29.73033112 36.94079346 32.125 39.13671875 C32.74391113 39.70922363 33.36282227 40.28172852 34.00048828 40.87158203 C34.66032715 41.47083496 35.32016602 42.07008789 36 42.6875 C36.6791748 43.31253418 37.35834961 43.93756836 38.05810547 44.58154297 C42.49059133 48.65245066 46.95474564 52.68857776 51.4453125 56.6953125 C53.45537495 58.50867159 55.44717434 60.33652727 57.4296875 62.1796875 C58.02120605 62.72931152 58.61272461 63.27893555 59.22216797 63.84521484 C60.387089 64.92950965 61.55024353 66.01570614 62.71142578 67.10400391 C65.62381571 69.87081082 65.62381571 69.87081082 69 72 C69 72.66 69 73.32 69 74 C55.44480497 75.36224665 55.44480497 75.36224665 50.09765625 72.3828125 C47.5395406 70.05272985 45.27546078 67.60643689 43 65 C41.60619045 63.59046341 40.21212038 62.18107119 38.80273438 60.78710938 C37.39334837 59.39314756 35.9992783 57.98375534 34.60546875 56.57421875 C31.76591425 53.76872187 28.82426081 51.14562697 25.7734375 48.57421875 C23.97967283 46.98195628 22.41736815 45.28001873 20.8125 43.5 C19.884375 42.675 18.95625 41.85 18 41 C15.525 41.495 15.525 41.495 13 42 C12.67 52.23 12.34 62.46 12 73 C8.04 73 4.08 73 0 73 C0 48.91 0 24.82 0 0 Z " transform="translate(683,188)" style="fill: #F4FBF5;"/><path d="M0 0 C34.19295852 0 34.19295852 0 42.3125 7.4375 C44.6855669 10.26371535 45.91232846 12.23012388 46 16 C46.05414063 17.21816406 46.05414063 17.21816406 46.109375 18.4609375 C46.25533278 23.55486405 46.25533278 23.55486405 46 26 C44 28 44 28 40 28 C38.375 26.5 38.375 26.5 37 25 C36.34 25 35.68 25 35 25 C35.04125 23.7625 35.0825 22.525 35.125 21.25 C35.13190063 16.79245842 35.13190063 16.79245842 33 13 C28.3089773 9.26850467 24.70791926 8.7297471 18.734375 8.38671875 C17.47334961 8.31026123 16.21232422 8.23380371 14.91308594 8.1550293 C13.95176758 8.10386963 12.99044922 8.05270996 12 8 C12.05329468 9.19653198 12.05329468 9.19653198 12.10766602 10.41723633 C12.9056887 29.05153222 12.90728639 47.35022421 12 66 C20.58 65.67 29.16 65.34 38 65 C38.66 63.68 39.32 62.36 40 61 C40.66 61 41.32 61 42 61 C42.33 60.01 42.66 59.02 43 58 C44.98 58.99 46.96 59.98 49 61 C49 61.99 49 62.98 49 64 C48.01 64.495 48.01 64.495 47 65 C46.67 65.66 46.34 66.32 46 67 C45.01 66.505 45.01 66.505 44 66 C44 66.66 44 67.32 44 68 C43.01 68 42.02 68 41 68 C41 68.66 41 69.32 41 70 C39.35 70 37.7 70 36 70 C36 70.66 36 71.32 36 72 C24.35379946 74.91155013 12.00462874 73 0 73 C0 48.91 0 24.82 0 0 Z " transform="translate(242,188)" style="fill: #F7FBF8;"/><path d="M0 0 C4.145697 -0.0879568 8.29115012 -0.14071153 12.4375 -0.1875 C13.60216797 -0.21263672 14.76683594 -0.23777344 15.96679688 -0.26367188 C25.85268811 -0.34721462 34.57534917 0.97611157 42 8 C44.88849245 12.39553198 44.50349518 17.91632291 44 23 C42.9375 26.5625 42.9375 26.5625 41 29 C37.5 30.0625 37.5 30.0625 34 30 C32.0625 28.5625 32.0625 28.5625 31 27 C32.32 27 33.64 27 35 27 C35.042721 25.33388095 35.04063832 23.66617115 35 22 C34.67 21.67 34.34 21.34 34 21 C33.92794489 19.31391034 33.91613932 17.62499341 33.9375 15.9375 C33.94652344 15.01839844 33.95554687 14.09929687 33.96484375 13.15234375 C33.97644531 12.44207031 33.98804688 11.73179687 34 11 C33.01 11 32.02 11 31 11 C31 10.34 31 9.68 31 9 C30.34 9 29.68 9 29 9 C29 8.34 29 7.68 29 7 C22.4 7 15.8 7 9 7 C9 15.58 9 24.16 9 33 C15.6 33 22.2 33 29 33 C29.33 33.66 29.66 34.32 30 35 C29.67 35.66 29.34 36.32 29 37 C29.66 37 30.32 37 31 37 C31 37.66 31 38.32 31 39 C24.07 39 17.14 39 10 39 C10 47.58 10 56.16 10 65 C17.67336227 64.92112459 17.67336227 64.92112459 25.34643555 64.81982422 C26.308479 64.8148291 27.27052246 64.80983398 28.26171875 64.8046875 C29.73064575 64.78897705 29.73064575 64.78897705 31.22924805 64.77294922 C34.17112772 65.01402315 36.33237726 65.76944458 39 67 C37 69 37 69 35.0546875 69.1953125 C33.03645833 69.13020833 31.01822917 69.06510417 29 69 C29 69.66 29 70.32 29 71 C19.1 71 9.2 71 -1 71 C-1.04010881 54.14984354 -1.04010881 54.14984354 -1.04882812 46.97460938 C-1.05480897 42.0760795 -1.06188909 37.17756828 -1.07543945 32.27905273 C-1.08629418 28.33036914 -1.09228234 24.38170556 -1.09487724 20.43300819 C-1.09672682 18.92550656 -1.1003385 17.41800605 -1.10573006 15.91051292 C-1.11297477 13.80123897 -1.11398949 11.69204804 -1.11352539 9.58276367 C-1.115746 8.38141281 -1.11796661 7.18006195 -1.12025452 5.94230652 C-1 3 -1 3 0 0 Z " transform="translate(419,189)" style="fill: #F7FBF7;"/><path d="M0 0 C3.96 0 7.92 0 12 0 C12 21.45 12 42.9 12 65 C21.57 65 31.14 65 41 65 C41 67.97 41 70.94 41 74 C27.47 74 13.94 74 0 74 C0 49.58 0 25.16 0 0 Z " transform="translate(340,188)" style="fill: #F2F8F1;"/><path d="M0 0 C3.96 0 7.92 0 12 0 C12 24.42 12 48.84 12 74 C8.04 74 4.08 74 0 74 C0 49.58 0 25.16 0 0 Z " transform="translate(310,188)" style="fill: #FDFDFB;"/><path d="M0 0 C2.875 -0.125 2.875 -0.125 6 0 C8.70278866 2.70278866 9.00691414 5.33799588 10 9 C10.4125 9.9075 10.825 10.815 11.25 11.75 C11.4975 12.4925 11.745 13.235 12 14 C11.01 15.485 11.01 15.485 10 17 C9.67216171 19.44368974 9.67216171 19.44368974 9.68115234 22.20581055 C9.66128265 23.26668381 9.64141296 24.32755707 9.62094116 25.420578 C9.60361435 27.13631767 9.60361435 27.13631767 9.5859375 28.88671875 C9.56657135 30.05886429 9.5472052 31.23100983 9.5272522 32.43867493 C9.46739803 36.1882089 9.42104717 39.93777348 9.375 43.6875 C9.33682564 46.22722705 9.29777424 48.76694107 9.2578125 51.30664062 C9.1616915 57.53765486 9.07768168 63.7687297 9 70 C5.7 70 2.4 70 -1 70 C-1.02314123 61.16844684 -1.0409242 52.33690406 -1.05181217 43.50532722 C-1.05703709 39.40474504 -1.06412768 35.30418355 -1.07543945 31.20361328 C-1.08628218 27.24845043 -1.09227979 23.29330752 -1.09487724 19.33813095 C-1.09672898 17.82701173 -1.10034482 16.31589363 -1.10573006 14.80478287 C-1.11295886 12.69291042 -1.11399016 10.58112105 -1.11352539 8.46923828 C-1.115746 7.26566681 -1.11796661 6.06209534 -1.12025452 4.822052 C-1 2 -1 2 0 0 Z " transform="translate(48,190)" style="fill: #FCFDFC;"/><path d="M0 0 C2.805 -0.061875 5.61 -0.12375 8.5 -0.1875 C9.8003418 -0.22846802 9.8003418 -0.22846802 11.12695312 -0.27026367 C17.97223957 -0.34240914 22.90917827 1.39019701 29 4.5625 C31.72875244 7.88816704 31.71213643 10.37821646 31.4765625 14.59375 C30.7193931 18.41683483 29.17011788 19.82054396 26 22 C19.92617404 24.73322168 15.10721327 25.39566406 8.5 25.1875 C5.695 25.125625 2.89 25.06375 0 25 C0 16.75 0 8.5 0 0 Z " transform="translate(254,228)" style="fill: #30A44C;"/><path d="M0 0 C2.97 -0.0825 5.94 -0.165 9 -0.25 C10.37865234 -0.30462402 10.37865234 -0.30462402 11.78515625 -0.36035156 C17.82055683 -0.44058202 21.90240186 0.80251595 27 4 C27.81339844 4.47695312 28.62679688 4.95390625 29.46484375 5.4453125 C31.56648784 7.57369507 31.56699174 8.91943256 31.5625 11.875 C31.39989094 15.59874742 31.14260697 16.79689311 28.9375 19.9375 C22.2343331 24.64397889 17.06445667 25.42295381 9.0625 25.1875 C4.5765625 25.0946875 4.5765625 25.0946875 0 25 C0 16.75 0 8.5 0 0 Z " transform="translate(429,228)" style="fill: #32A44F;"/><path d="M0 0 C4 2 4 2 6 5 C4.68 5 3.36 5 2 5 C1.67 28.1 1.34 51.2 1 75 C4.3 75 7.6 75 11 75 C10.98952637 73.41541992 10.97905273 71.83083984 10.96826172 70.19824219 C10.93208506 64.32407894 10.90910792 58.44992555 10.89013672 52.57568359 C10.88007384 50.03237248 10.86642226 47.48907295 10.84912109 44.94580078 C10.82488573 41.29196312 10.81351973 37.63827832 10.8046875 33.984375 C10.79436493 32.84570984 10.78404236 31.70704468 10.77340698 30.53387451 C10.77325592 29.47307678 10.77310486 28.41227905 10.77294922 27.31933594 C10.768508 26.38667908 10.76406677 25.45402222 10.75949097 24.49310303 C11 22 11 22 12.10012817 19.81988525 C12.39708588 19.21932312 12.69404358 18.61876099 13 18 C12.04504326 16.30712215 11.0409066 14.64142963 10 13 C9.8125 10.1875 9.8125 10.1875 10 8 C14.43390421 10.21695211 17.87156009 12.6767651 21.5 16.0625 C26.29532314 20.5189831 31.3945509 24.33893911 36.734375 28.10571289 C40.51853042 30.8013236 43.74481754 33.66149375 47 37 C48.24318379 37.97386738 49.51041521 38.9189124 50.8125 39.8125 C51.864375 40.534375 52.91625 41.25625 54 42 C52.02 42.495 52.02 42.495 50 43 C50 43.66 50 44.32 50 45 C49.01 45 48.02 45 47 45 C47.18828772 47.44480079 47.18828772 47.44480079 48 50 C49.96758273 51.36020151 49.96758273 51.36020151 52 52 C52 52.99 52 53.98 52 55 C51.22398438 54.33355469 50.44796875 53.66710937 49.6484375 52.98046875 C43.24782943 47.5099835 36.76471077 42.17999746 30.11962891 37.0090332 C25.37802491 33.3158609 20.73127771 29.52215691 16.109375 25.6796875 C14.11042362 23.96883 14.11042362 23.96883 12 23 C12 40.49 12 57.98 12 76 C8.04 76 4.08 76 0 76 C0 50.92 0 25.84 0 0 Z " transform="translate(46,185)" style="fill: #EDF7EE;"/><path d="M0 0 C0.90500244 0.1144043 1.81000488 0.22880859 2.74243164 0.34667969 C2.41243164 1.33667969 2.08243164 2.32667969 1.74243164 3.34667969 C2.73243164 3.34667969 3.72243164 3.34667969 4.74243164 3.34667969 C5.25060392 8.70707762 3.62246211 12.03884519 0.86743164 16.47167969 C0.14011339 17.68216342 -0.58646975 18.89308919 -1.31225586 20.10449219 C-1.95420898 21.17441406 -2.59616211 22.24433594 -3.25756836 23.34667969 C-3.91756836 24.66667969 -4.57756836 25.98667969 -5.25756836 27.34667969 C5.63243164 27.34667969 16.52243164 27.34667969 27.74243164 27.34667969 C28.07243164 26.68667969 28.40243164 26.02667969 28.74243164 25.34667969 C28.40909831 26.68001302 28.07576497 28.01334635 27.74243164 29.34667969 C27.57743164 30.06855469 27.41243164 30.79042969 27.24243164 31.53417969 C26.74243164 33.34667969 26.74243164 33.34667969 25.74243164 34.34667969 C23.22149088 34.43515712 20.72812271 34.4619527 18.20727539 34.44433594 C17.07739952 34.44221352 17.07739952 34.44221352 15.92469788 34.44004822 C13.50973604 34.43443345 11.09486563 34.42187852 8.67993164 34.40917969 C7.04646943 34.40416659 5.41300578 34.39960335 3.77954102 34.39550781 C-0.23286421 34.38445922 -4.24520076 34.36718475 -8.25756836 34.34667969 C-8.25756836 33.68667969 -8.25756836 33.02667969 -8.25756836 32.34667969 C-9.02069336 32.53230469 -9.78381836 32.71792969 -10.57006836 32.90917969 C-13.25756836 33.34667969 -13.25756836 33.34667969 -16.25756836 32.34667969 C-16.25756836 31.68667969 -16.25756836 31.02667969 -16.25756836 30.34667969 C-16.91756836 30.34667969 -17.57756836 30.34667969 -18.25756836 30.34667969 C-18.95703125 28.7265625 -18.95703125 28.7265625 -19.25756836 26.34667969 C-17.48017684 22.33936954 -15.13132506 18.66002113 -12.82666016 14.93652344 C-11.6990312 13.10312283 -10.60985011 11.25031999 -9.52124023 9.39355469 C-8.80928701 8.22552004 -8.09516406 7.05880457 -7.37866211 5.89355469 C-6.73340576 4.82975586 -6.08814941 3.76595703 -5.42333984 2.66992188 C-3.25756836 0.34667969 -3.25756836 0.34667969 0 0 Z " transform="translate(518.257568359375,207.6533203125)" style="fill: #F4FAF4;"/><path d="M0 0 C0.66 0 1.32 0 2 0 C2 0.66 2 1.32 2 2 C2.66 2 3.32 2 4 2 C5.42297212 4.60878222 6.84549625 7.2177931 8.265625 9.828125 C9.4131154 11.92668853 10.56925146 14.02054991 11.734375 16.109375 C12.27578125 17.08390625 12.8171875 18.0584375 13.375 19.0625 C14.12910156 20.41021484 14.12910156 20.41021484 14.8984375 21.78515625 C16 24 16 24 16 26 C16.66 26 17.32 26 18 26 C18 26.99 18 27.98 18 29 C7.11 29 -3.78 29 -15 29 C-14.19241215 25.76964859 -13.5280592 23.89407522 -11.93359375 21.109375 C-11.53076172 20.40039062 -11.12792969 19.69140625 -10.71289062 18.9609375 C-10.08157227 17.86652344 -10.08157227 17.86652344 -9.4375 16.75 C-8.80038086 15.63238281 -8.80038086 15.63238281 -8.15039062 14.4921875 C-7.10453958 12.65901039 -6.05283808 10.82917323 -5 9 C-4.34 9 -3.68 9 -3 9 C-2.01 6.03 -1.02 3.06 0 0 Z " transform="translate(528,206)" style="fill: #32A553;"/><path d="M0 0 C14.56161796 -0.70007779 14.56161796 -0.70007779 20.546875 3.515625 C23.08009007 6.10331782 23.93188755 8.35974295 24.3125 11.9375 C23.79849888 16.97471097 22.06169637 19.12704965 18.1875 22.3125 C12.6577033 25.29284497 6.05189821 24.2305485 0 24 C0 16.08 0 8.16 0 0 Z " transform="translate(254,196)" style="fill: #34A650;"/><path d="M0 0 C3.3304589 1.65906193 6.29447878 3.58895755 8 7 C8.57225643 11.43317636 8.90875522 15.8809115 7.1171875 20.05859375 C4.68604209 23.09388608 2.69254558 23.89101203 -1.15234375 24.49609375 C-9.96157962 24.82309576 -9.96157962 24.82309576 -13.3359375 22.1484375 C-16.7954721 17.68190222 -16.64042925 12.41768524 -16 7 C-12.0472737 0.45755647 -7.30007757 -1.22070834 0 0 Z " transform="translate(778,168)" style="fill: #87C093;"/><path d="M0 0 C15.58727321 -0.48208061 15.58727321 -0.48208061 21.6484375 4.30078125 C23.92858553 7.16744134 23.52393862 10.01320959 23.42578125 13.546875 C23 16 23 16 20.6875 19.125 C18 21 18 21 15 21 C15 21.66 15 22.32 15 23 C10.05 23 5.1 23 0 23 C0 15.41 0 7.82 0 0 Z " transform="translate(429,197)" style="fill: #32A44F;"/><path d="M0 0 C-3.64621358 3.789604 -7.47015645 7.09442032 -11.625 10.3125 C-12.23746582 10.79033936 -12.84993164 11.26817871 -13.48095703 11.76049805 C-18.08959172 15.33826969 -22.77347704 18.80251683 -27.51171875 22.20703125 C-31.04620277 24.75385725 -34.52573004 27.37189894 -38 30 C-37.67 28.02 -37.34 26.04 -37 24 C-41.96911366 25.12697043 -41.96911366 25.12697043 -46 28 C-48.125 27.625 -48.125 27.625 -50 27 C-43.45618236 21.55111247 -36.84231414 16.29306682 -29.953125 11.28515625 C-26.96091457 9.05815727 -26.96091457 9.05815727 -24.359375 6.43359375 C-16.53984769 -1.04646306 -10.25567909 -1.04229612 0 0 Z " transform="translate(750,188)" style="fill: #EEF9F0;"/><path d="M0 0 C6.6 0 13.2 0 20 0 C20 0.66 20 1.32 20 2 C20.66 2 21.32 2 22 2 C22 2.66 22 3.32 22 4 C22.99 4 23.98 4 25 4 C25.78186857 7.42067499 26 10.50326134 26 14 C26.33 14.99 26.66 15.98 27 17 C26 20 26 20 24 21 C26.46278801 22.231394 28.2795055 22.07159196 31 22 C29.625 23.5 29.625 23.5 28 25 C27.34 25 26.68 25 26 25 C26 25.66 26 26.32 26 27 C26.66386719 27.07476562 27.32773437 27.14953125 28.01171875 27.2265625 C36.12187806 28.43420666 36.12187806 28.43420666 39.125 32.125 C39.74375 33.07375 40.3625 34.0225 41 35 C40.01 35.495 40.01 35.495 39 36 C38.01 35.01 37.02 34.02 36 33 C35.505 33.99 35.505 33.99 35 35 C34.01 35.66 33.02 36.32 32 37 C31.67 37.66 31.34 38.32 31 39 C27.14341602 36.84921278 23.45680903 34.76544722 20 32 C20.66 32 21.32 32 22 32 C22 31.34 22 30.68 22 30 C21.34 30 20.68 30 20 30 C20 29.01 20 28.02 20 27 C13.4 26.67 6.8 26.34 0 26 C0 17.42 0 8.84 0 0 Z M1 1 C1 8.59 1 16.18 1 24 C5.95 24 10.9 24 16 24 C16 23.34 16 22.68 16 22 C16.86625 21.87625 16.86625 21.87625 17.75 21.75 C20.93071157 20.68976281 22.08767658 19.80018787 24 17 C24.69168942 13.52982934 24.75091711 10.46318488 24 7 C22.01054774 4.16342614 19.5243266 2.52816579 16.21875 1.3828125 C13.20802831 0.863357 10.30288756 0.90697112 7.25 0.9375 C4.15625 0.9684375 4.15625 0.9684375 1 1 Z " transform="translate(428,196)" style="fill: #EEF8EF;"/><path d="M0 0 C2.3125 -0.3125 2.3125 -0.3125 5 0 C6.6875 2.3125 6.6875 2.3125 8 5 C8.99 6.485 8.99 6.485 10 8 C10.44921875 10.4453125 10.44921875 10.4453125 10.6875 13.125 C10.77386719 14.01445312 10.86023438 14.90390625 10.94921875 15.8203125 C10.96597656 16.53960937 10.98273437 17.25890625 11 18 C10 19 10 19 7.86694336 19.11352539 C6.95050049 19.10828857 6.03405762 19.10305176 5.08984375 19.09765625 C4.10048828 19.09443359 3.11113281 19.09121094 2.09179688 19.08789062 C1.05087891 19.07951172 0.00996094 19.07113281 -1.0625 19.0625 C-2.10728516 19.05798828 -3.15207031 19.05347656 -4.22851562 19.04882812 C-6.8190666 19.03699913 -9.40950559 19.02051689 -12 19 C-12 18.67 -12 18.34 -12 18 C-10.35 18 -8.7 18 -7 18 C-5.92474806 15.34771188 -4.90543849 12.71631546 -4 10 C-4.33 10 -4.66 10 -5 10 C-5 7.69 -5 5.38 -5 3 C-3.68 3.66 -2.36 4.32 -1 5 C-0.67 3.35 -0.34 1.7 0 0 Z " transform="translate(530,214)" style="fill: #32A44B;"/><path d="M0 0 C4.30577504 1.66169474 7.09011855 4.83080306 10.25 8.0625 C10.80429688 8.61744141 11.35859375 9.17238281 11.9296875 9.74414062 C16 13.85956743 16 13.85956743 16 15 C6.43 15 -3.14 15 -13 15 C-10.96986589 10.93973179 -8.57604446 8.34542624 -5.375 5.25 C-4.859375 4.74339844 -4.34375 4.23679688 -3.8125 3.71484375 C-2.54616661 2.47196098 -1.2736856 1.23534724 0 0 Z " transform="translate(185,233)" style="fill: #F2FAF2;"/><path d="M0 0 C3.3304589 1.65906193 6.29447878 3.58895755 8 7 C8.57225643 11.43317636 8.90875522 15.8809115 7.1171875 20.05859375 C4.68604209 23.09388608 2.69254558 23.89101203 -1.15234375 24.49609375 C-9.96157962 24.82309576 -9.96157962 24.82309576 -13.3359375 22.1484375 C-16.7954721 17.68190222 -16.64042925 12.41768524 -16 7 C-12.0472737 0.45755647 -7.30007757 -1.22070834 0 0 Z M-11.5625 5.5 C-13.58720242 9.02122161 -13.85096389 12.10348115 -13 16 C-11.6425039 18.84713784 -10.51699644 19.85787537 -8 22 C-4.5 22.91666667 -4.5 22.91666667 -1 22 C2.10350449 20.14658666 2.10350449 20.14658666 4 17 C4.65451162 13.13311527 4.24271205 9.72813615 3 6 C-1.58680005 2.9421333 -6.73860354 2.67625573 -11.5625 5.5 Z " transform="translate(778,168)" style="fill: #EDF8EF;"/><path d="M0 0 C0.33 0 0.66 0 1 0 C1.0463915 9.54476112 1.08190382 19.08948328 1.10362434 28.63433266 C1.11405041 33.06664647 1.12818811 37.498883 1.15087891 41.93115234 C1.17264927 46.21053194 1.18457748 50.48983732 1.18975449 54.76926804 C1.19344271 56.39989769 1.2006449 58.03052341 1.21146011 59.66112137 C1.22603086 61.94946239 1.22797562 64.23749878 1.22705078 66.52587891 C1.231492 67.82715729 1.23593323 69.12843567 1.24050903 70.46914673 C1.00130859 73.98078886 0.27160754 76.73282322 -1 80 C-1.33 80 -1.66 80 -2 80 C-2 54.59 -2 29.18 -2 3 C-1.34 3 -0.68 3 0 3 C0 2.01 0 1.02 0 0 Z " transform="translate(325,184)" style="fill: #29A047;"/><path d="M0 0 C0.33 0 0.66 0 1 0 C1 25.41 1 50.82 1 77 C0.01 75.68 -0.98 74.36 -2 73 C-2.66 72.67 -3.32 72.34 -4 72 C-4 71.34 -4 70.68 -4 70 C-3.34 70 -2.68 70 -2 70 C-2 48.88 -2 27.76 -2 6 C-1.67 6 -1.34 6 -1 6 C-0.67 4.02 -0.34 2.04 0 0 Z " transform="translate(580,186)" style="fill: #27A145;"/><path d="M0 0 C0.99 0.33 1.98 0.66 3 1 C3 1.66 3 2.32 3 3 C3.639375 3.12375 4.27875 3.2475 4.9375 3.375 C5.618125 3.58125 6.29875 3.7875 7 4 C8.32229189 6.64458379 8.09677194 8.67761301 8.0625 11.625 C8.05347656 12.62789062 8.04445313 13.63078125 8.03515625 14.6640625 C8.02355469 15.43492187 8.01195312 16.20578125 8 17 C7.34 17 6.68 17 6 17 C6 17.66 6 18.32 6 19 C4.37373596 20.38232443 2.7074998 21.71937515 1 23 C0.67 22.34 0.34 21.68 0 21 C-0.66 21 -1.32 21 -2 21 C-2 19 -2 19 -1 18 C-1.66 17.34 -2.32 16.68 -3 16 C-2.9765625 13.8359375 -2.9765625 13.8359375 -2.625 11.375 C-2.51414062 10.55773437 -2.40328125 9.74046875 -2.2890625 8.8984375 C-2.19367188 8.27195313 -2.09828125 7.64546875 -2 7 C-2.66 7 -3.32 7 -4 7 C-4.33 5.68 -4.66 4.36 -5 3 C-2.6875 1.4375 -2.6875 1.4375 0 0 Z " transform="translate(464,229)" style="fill: #FBFAF9;"/><path d="M0 0 C3.96 0 7.92 0 12 0 C12 0.66 12 1.32 12 2 C8.7 1.67 5.4 1.34 2 1 C2 24.43 2 47.86 2 72 C5.3 72 8.6 72 12 72 C12 72.66 12 73.32 12 74 C8.04 74 4.08 74 0 74 C0 49.58 0 25.16 0 0 Z " transform="translate(310,188)" style="fill: #D0E5CF;"/><path d="M0 0 C0.99 0.66 1.98 1.32 3 2 C3 2.66 3 3.32 3 4 C3.99 4 4.98 4 6 4 C4.50521886 7.80489745 2.30557786 9.66190835 -1 12 C-4 13 -4 13 -7 12 C-7 11.34 -7 10.68 -7 10 C-8.7325 10.2784375 -8.7325 10.2784375 -10.5 10.5625 C-14.86389648 11.1235724 -18.66733065 10.69632186 -23 10 C-23 11.32 -23 12.64 -23 14 C-22.24074219 13.97679687 -21.48148437 13.95359375 -20.69921875 13.9296875 C-19.70535156 13.91164062 -18.71148437 13.89359375 -17.6875 13.875 C-16.70136719 13.85179687 -15.71523438 13.82859375 -14.69921875 13.8046875 C-12 14 -12 14 -9 16 C-14.28 16 -19.56 16 -25 16 C-25 13.36 -25 10.72 -25 8 C-24.04738281 7.96261719 -23.09476563 7.92523438 -22.11328125 7.88671875 C-20.85902344 7.82097656 -19.60476563 7.75523437 -18.3125 7.6875 C-16.45044922 7.60048828 -16.45044922 7.60048828 -14.55078125 7.51171875 C-10.91054453 6.98710818 -9.00857611 6.02197998 -6 4 C-5.34 4 -4.68 4 -4 4 C-3.67 3.01 -3.34 2.02 -3 1 C-2.01 0.67 -1.02 0.34 0 0 Z " transform="translate(279,212)" style="fill: #EBF5EA;"/><path d="M0 0 C0 1.32 0 2.64 0 4 C0.66 4 1.32 4 2 4 C2 5.98 2 7.96 2 10 C2.66 10 3.32 10 4 10 C4 10.66 4 11.32 4 12 C4.66 12 5.32 12 6 12 C6 13.32 6 14.64 6 16 C6.66 16 7.32 16 8 16 C8.20496094 16.55429688 8.40992188 17.10859375 8.62109375 17.6796875 C9.02521484 18.76636719 9.02521484 18.76636719 9.4375 19.875 C9.70433594 20.59429687 9.97117188 21.31359375 10.24609375 22.0546875 C10.97916854 24.03648845 10.97916854 24.03648845 12 26 C10.68 26 9.36 26 8 26 C8 25.34 8 24.68 8 24 C7.34 24 6.68 24 6 24 C4.98133771 22.34467377 3.98189187 20.67739862 3 19 C2.34 18.67 1.68 18.34 1 18 C1 17.34 1 16.68 1 16 C0.34 16 -0.32 16 -1 16 C-1 15.34 -1 14.68 -1 14 C-1.66 14 -2.32 14 -3 14 C-3 13.34 -3 12.68 -3 12 C-3.99 12 -4.98 12 -6 12 C-6.33 9.36 -6.66 6.72 -7 4 C-6.34 4 -5.68 4 -5 4 C-4.34 3.01 -3.68 2.02 -3 1 C-2 0 -2 0 0 0 Z " transform="translate(222,238)" style="fill: #D53F31;"/><path d="M0 0 C9.24 0 18.48 0 28 0 C28.33 1.32 28.66 2.64 29 4 C27 6 27 6 23.76171875 6.23046875 C22.40357298 6.22777402 21.04541476 6.21269322 19.6875 6.1875 C18.62402344 6.17783203 18.62402344 6.17783203 17.5390625 6.16796875 C11.00351744 6.0744368 4.5057981 5.62384365 -2 5 C-1.34 3.35 -0.68 1.7 0 0 Z " transform="translate(517,236)" style="fill: #FCFCFC;"/><path d="M0 0 C4 2 4 2 6 5 C4.68 5 3.36 5 2 5 C1.67 28.1 1.34 51.2 1 75 C4.3 75 7.6 75 11 75 C11 57.51 11 40.02 11 22 C11.99 22.33 12.98 22.66 14 23 C13.34 23 12.68 23 12 23 C12 40.49 12 57.98 12 76 C8.04 76 4.08 76 0 76 C0 50.92 0 25.84 0 0 Z " transform="translate(46,185)" style="fill: #E8F0DE;"/><path d="M0 0 C0.33 0.66 0.66 1.32 1 2 C1.66 2 2.32 2 3 2 C3 18.83 3 35.66 3 53 C1.68 52.67 0.36 52.34 -1 52 C-0.67 34.84 -0.34 17.68 0 0 Z " transform="translate(595,211)" style="fill: #27A146;"/><path d="M0 0 C24 0 24 0 28 2 C27.09378906 1.98839844 26.18757813 1.97679687 25.25390625 1.96484375 C18.40496536 1.91411085 11.786092 2.06398731 5 3 C5 2.34 5 1.68 5 1 C3.515 1.99 3.515 1.99 2 3 C1.52047198 5.98970963 1.52047198 5.98970963 1.56762695 9.56103516 C1.5574353 10.23432358 1.54724365 10.907612 1.53674316 11.6013031 C1.50650665 13.8306397 1.49733151 16.05954743 1.48828125 18.2890625 C1.47144236 19.83321574 1.45329319 21.3773552 1.43388367 22.92147827 C1.38629127 26.98864437 1.35654202 31.05575465 1.33044434 35.12310791 C1.29545434 40.00159403 1.23841559 44.87986564 1.18505096 49.75817871 C1.10642868 57.17209243 1.05590588 64.58572331 1 72 C11.23 72 21.46 72 32 72 C32 72.33 32 72.66 32 73 C21.44 73 10.88 73 0 73 C0 48.91 0 24.82 0 0 Z " transform="translate(242,188)" style="fill: #E5F6E5;"/><path d="M0 0 C3 1 3 1 3.9140625 2.70703125 C4.26597656 3.74923828 4.26597656 3.74923828 4.625 4.8125 C4.86476562 5.49957031 5.10453125 6.18664062 5.3515625 6.89453125 C5.97438681 8.91683429 6.50975812 10.94190909 7 13 C3.125 12.125 3.125 12.125 2 11 C2 36.74 2 62.48 2 89 C1.34 88.67 0.68 88.34 0 88 C0.495 50.38 0.495 50.38 1 12 C-2.96 12 -6.92 12 -11 12 C-11 11.67 -11 11.34 -11 11 C-7.7 11 -4.4 11 -1 11 C-0.67 7.37 -0.34 3.74 0 0 Z " transform="translate(129,176)" style="fill: #39A65B;"/><path d="M0 0 C0.33 0 0.66 0 1 0 C1 23.1 1 46.2 1 70 C0.34 70 -0.32 70 -1 70 C-1.14343114 62.17124224 -1.28572709 54.34246443 -1.42724609 46.51367188 C-1.47540825 43.85220706 -1.52398895 41.19075082 -1.57275391 38.52929688 C-1.64293359 34.6966266 -1.71218009 30.86394041 -1.78125 27.03125 C-1.80312378 25.84760864 -1.82499756 24.66396729 -1.84753418 23.44445801 C-1.95144671 17.62849249 -2.0249652 11.81689092 -2 6 C-1.34 6 -0.68 6 0 6 C0 4.02 0 2.04 0 0 Z " transform="translate(44,186)" style="fill: #2D9D42;"/><path d="M0 0 C0.66 0 1.32 0 2 0 C4.14774744 3.49551663 4.24304134 6.26750044 4.22705078 10.32910156 C4.22689972 11.61012756 4.22674866 12.89115356 4.22659302 14.21099854 C4.21638051 15.60420894 4.20594853 16.99741776 4.1953125 18.390625 C4.19158064 19.81980186 4.18873448 21.24898128 4.18673706 22.67816162 C4.17911419 26.43305571 4.15947739 30.18779419 4.1373291 33.94262695 C4.11684159 37.77683406 4.10772914 41.61106639 4.09765625 45.4453125 C4.07623012 52.96361248 4.04211056 60.4817844 4 68 C3.34 68 2.68 68 2 68 C2 46.88 2 25.76 2 4 C1.34 4 0.68 4 0 4 C0 2.68 0 1.36 0 0 Z " transform="translate(306,188)" style="fill: #22A548;"/><path d="M0 0 C2.67389923 1.9904957 5.33857523 3.99286265 8 6 C8.99 6.7425 9.98 7.485 11 8.25 C11.66 8.8275 12.32 9.405 13 10 C13 10.66 13 11.32 13 12 C-0.88789238 13.22690583 -0.88789238 13.22690583 -6.06640625 10.21875 C-8.22760012 8.24835173 -10.1692252 6.27829753 -12 4 C-9 2 -9 2 -7 2 C-7 3.32 -7 4.64 -7 6 C-3.535 5.505 -3.535 5.505 0 5 C0 3.35 0 1.7 0 0 Z " transform="translate(739,250)" style="fill: #EDF9F0;"/><path d="M0 0 C8.44646925 6.15034169 8.44646925 6.15034169 12 10 C10.68 10 9.36 10 8 10 C8 12.64 8 15.28 8 18 C9.32 18 10.64 18 12 18 C11.67 19.32 11.34 20.64 11 22 C8.9571299 20.43905326 6.91569142 18.87629071 4.875 17.3125 C4.30523438 16.87744141 3.73546875 16.44238281 3.1484375 15.99414062 C-0.64625172 13.0834415 -4.34422615 10.08351746 -8 7 C-6.68 6.67 -5.36 6.34 -4 6 C-4 6.99 -4 7.98 -4 9 C-3.38125 8.690625 -2.7625 8.38125 -2.125 8.0625 C-0.75 7.375 0.625 6.6875 2 6 C1.34 4.02 0.68 2.04 0 0 Z " transform="translate(624,218)" style="fill: #E6F5E7;"/><path d="M0 0 C3.13782964 1.56891482 5.50839252 3.02310093 8.25 5.125 C8.95640625 5.66382813 9.6628125 6.20265625 10.390625 6.7578125 C10.92171875 7.16773438 11.4528125 7.57765625 12 8 C11.01 9.485 11.01 9.485 10 11 C10 10.01 10 9.02 10 8 C8.35 8 6.7 8 5 8 C5 21.86 5 35.72 5 50 C4.67 50 4.34 50 4 50 C4 35.15 4 20.3 4 5 C3.34 5 2.68 5 2 5 C1.67 20.84 1.34 36.68 1 53 C0.67 53 0.34 53 0 53 C0 35.51 0 18.02 0 0 Z " transform="translate(594,208)" style="fill: #45A960;"/><path d="M0 0 C0.33 0 0.66 0 1 0 C1 17.16 1 34.32 1 52 C0.67 52 0.34 52 0 52 C0 46.72 0 41.44 0 36 C-0.66 36 -1.32 36 -2 36 C-2 25.44 -2 14.88 -2 4 C-1.34 4 -0.68 4 0 4 C0 2.68 0 1.36 0 0 Z " transform="translate(652,188)" style="fill: #289C40;"/><path d="M0 0 C2.15377564 2.62198774 3.40072174 4.64404172 4 8 C4.66 8 5.32 8 6 8 C6 8.99 6 9.98 6 11 C-4.89 11 -15.78 11 -27 11 C-26.67 9.68 -26.34 8.36 -26 7 C-24.68 6.67 -23.36 6.34 -22 6 C-22 6.99 -22 7.98 -22 9 C-14.74 8.67 -7.48 8.34 0 8 C0 5.36 0 2.72 0 0 Z " transform="translate(540,224)" style="fill: #57AB6F;"/><path d="M0 0 C0.66 0.66 1.32 1.32 2 2 C2.99 2 3.98 2 5 2 C5 4.64 5 7.28 5 10 C0.71 10 -3.58 10 -8 10 C-6.90787129 5.63148517 -6.17069552 3.75258998 -2.375 1.3125 C-1.59125 0.879375 -0.8075 0.44625 0 0 Z " transform="translate(492,252)" style="fill: #FBFCFB;"/><path d="M0 0 C6.6 0 13.2 0 20 0 C20 0.66 20 1.32 20 2 C20.66 2 21.32 2 22 2 C22 2.66 22 3.32 22 4 C22.99 4 23.98 4 25 4 C25.78186857 7.42067499 26 10.50326134 26 14 C26.33 14.99 26.66 15.98 27 17 C26.67 17.99 26.34 18.98 26 20 C24.68 20 23.36 20 22 20 C22.33 19.01 22.66 18.02 23 17 C23.39591656 13.61208541 23.4986921 10.38002426 23 7 C18.58881315 1.97614831 13.61604801 1.88312336 7.25 1.4375 C5.1875 1.293125 3.125 1.14875 1 1 C1 8.59 1 16.18 1 24 C0.67 24 0.34 24 0 24 C0 16.08 0 8.16 0 0 Z " transform="translate(428,196)" style="fill: #B3E2BC;"/><path d="M0 0 C1.65 0 3.3 0 5 0 C5.33 1.32 5.66 2.64 6 4 C6.66 4 7.32 4 8 4 C8.33 5.98 8.66 7.96 9 10 C8.34 10 7.68 10 7 10 C6.67 10.99 6.34 11.98 6 13 C2.21181348 11.73727116 0.59629943 10.00624144 -2 7 C-2.8125 4.1875 -2.8125 4.1875 -3 2 C-2.01 2 -1.02 2 0 2 C0 1.34 0 0.68 0 0 Z " transform="translate(96,228)" style="fill: #F8FBF8;"/><path d="M0 0 C0.33 0 0.66 0 1 0 C1 25.08 1 50.16 1 76 C-2.56311466 74.21844267 -4.35645475 72.83236991 -7 70 C-4.69 70.66 -2.38 71.32 0 72 C0 48.24 0 24.48 0 0 Z " transform="translate(129,188)" style="fill: #C7E1C9;"/><path d="M0 0 C5.28 0 10.56 0 16 0 C16 0.66 16 1.32 16 2 C18.31 2.33 20.62 2.66 23 3 C22.01 4.485 22.01 4.485 21 6 C17.28359861 6.27028374 14.542799 6.180933 11 5 C9.10787263 4.77820215 7.21115528 4.59385985 5.3125 4.4375 C4.31863281 4.35371094 3.32476562 4.26992187 2.30078125 4.18359375 C1.16189453 4.09271484 1.16189453 4.09271484 0 4 C0 2.68 0 1.36 0 0 Z " transform="translate(256,222)" style="fill: #FAFCFB;"/><path d="M0 0 C0.99 0 1.98 0 3 0 C3.33 0.66 3.66 1.32 4 2 C5.97888961 2.72693904 7.97954558 3.39816251 10 4 C10.33 6.31 10.66 8.62 11 11 C5.25 12.125 5.25 12.125 3 11 C3 9.68 3 8.36 3 7 C2.34 7 1.68 7 1 7 C0.67 7.66 0.34 8.32 0 9 C-0.66 8.67 -1.32 8.34 -2 8 C-1.34 5.36 -0.68 2.72 0 0 Z " transform="translate(729,245)" style="fill: #F9FBFA;"/><path d="M0 0 C0.66 0.99 1.32 1.98 2 3 C1.01 3.33 0.02 3.66 -1 4 C-0.34 6.31 0.32 8.62 1 11 C0.01 10.67 -0.98 10.34 -2 10 C-3.65 13.3 -5.3 16.6 -7 20 C-7.66 20 -8.32 20 -9 20 C-8.67 20.556875 -8.34 21.11375 -8 21.6875 C-6.8690399 24.30284522 -6.84337026 26.1806646 -7 29 C-9.31 28.67 -11.62 28.34 -14 28 C-14 27.34 -14 26.68 -14 26 C-13.34 26 -12.68 26 -12 26 C-12 24.68 -12 23.36 -12 22 C-11.34 22 -10.68 22 -10 22 C-10 20.68 -10 19.36 -10 18 C-9.34 18 -8.68 18 -8 18 C-7.79503906 17.30132812 -7.59007812 16.60265625 -7.37890625 15.8828125 C-7.10949219 14.97273437 -6.84007812 14.06265625 -6.5625 13.125 C-6.16224609 11.76761719 -6.16224609 11.76761719 -5.75390625 10.3828125 C-5 8 -5 8 -4 6 C-3.34 6 -2.68 6 -2 6 C-2 4.68 -2 3.36 -2 2 C-1.34 2 -0.68 2 0 2 C0 1.34 0 0.68 0 0 Z " transform="translate(182,176)" style="fill: #CF4132;"/><path d="M0 0 C5.5952381 0.5952381 5.5952381 0.5952381 8 3 C8.125 5.625 8.125 5.625 8 8 C7.01 8.33 6.02 8.66 5 9 C5 9.66 5 10.32 5 11 C3.68 10.67 2.36 10.34 1 10 C1 9.01 1 8.02 1 7 C0.01 7 -0.98 7 -2 7 C-1.125 1.125 -1.125 1.125 0 0 Z " transform="translate(78,213)" style="fill: #F7FAF7;"/><path d="M0 0 C1 3 1 3 0 5 C0.66 5 1.32 5 2 5 C2.33 6.32 2.66 7.64 3 9 C11.415 8.505 11.415 8.505 20 8 C20.33 8.66 20.66 9.32 21 10 C11.43 10 1.86 10 -8 10 C-5.77502475 5.55004949 -3.55366005 3.39915309 0 0 Z " transform="translate(180,238)" style="fill: #DEE9DA;"/><path d="M0 0 C6.625 -0.125 6.625 -0.125 10 1 C10.08946233 4.22064378 9.82732699 6.89752377 9 10 C9 10.99 9 11.98 9 13 C7.68 12.34 6.36 11.68 5 11 C4.79859524 7.37471432 5.14223235 5.13498292 7 2 C5.35 2 3.7 2 2 2 C2.185625 2.70125 2.37125 3.4025 2.5625 4.125 C3.05156976 7.33888698 2.66231558 9.83560336 2 13 C1.34 13 0.68 13 0 13 C0 8.71 0 4.42 0 0 Z " transform="translate(769,174)" style="fill: #DCF3E2;"/><path d="M0 0 C3.63 0 7.26 0 11 0 C10.67 0.66 10.34 1.32 10 2 C7.03 1.67 4.06 1.34 1 1 C1.33 18.82 1.66 36.64 2 55 C0.515 55.495 0.515 55.495 -1 56 C-1 55.34 -1 54.68 -1 54 C-1.66 54 -2.32 54 -3 54 C-2.67 53.34 -2.34 52.68 -2 52 C-1.34 52.33 -0.68 52.66 0 53 C0 35.51 0 18.02 0 0 Z " transform="translate(118,188)" style="fill: #E4FAE5;"/><path d="M0 0 C2.31 1.65 4.62 3.3 7 5 C6.360625 5.185625 5.72125 5.37125 5.0625 5.5625 C2.57873787 6.94246056 2.57873787 6.94246056 2.25 10.625 C2.1675 11.73875 2.085 12.8525 2 14 C-1.98381075 11.83735988 -4.88983545 9.28788824 -8 6 C-4.535 5.505 -4.535 5.505 -1 5 C-0.67 3.35 -0.34 1.7 0 0 Z " transform="translate(604,202)" style="fill: #E4F6E8;"/><path d="M0 0 C0.33 0 0.66 0 1 0 C1.33 18.15 1.66 36.3 2 55 C0.35 54.67 -1.3 54.34 -3 54 C-3.33 54.66 -3.66 55.32 -4 56 C-4.33 54.02 -4.66 52.04 -5 50 C-3.35 50.99 -1.7 51.98 0 53 C0 35.51 0 18.02 0 0 Z " transform="translate(654,188)" style="fill: #DDF0DE;"/><path d="M0 0 C0.33 0.66 0.66 1.32 1 2 C1.66 2 2.32 2 3 2 C3 3.32 3 4.64 3 6 C3.66 6 4.32 6 5 6 C5.20496094 6.55429688 5.40992188 7.10859375 5.62109375 7.6796875 C5.89050781 8.40414063 6.15992188 9.12859375 6.4375 9.875 C6.70433594 10.59429687 6.97117188 11.31359375 7.24609375 12.0546875 C7.97916854 14.03648845 7.97916854 14.03648845 9 16 C7.68 16 6.36 16 5 16 C5 15.34 5 14.68 5 14 C4.34 14 3.68 14 3 14 C1.98133771 12.34467377 0.98189187 10.67739862 0 9 C-0.66 8.67 -1.32 8.34 -2 8 C-2 7.34 -2 6.68 -2 6 C-2.66 6 -3.32 6 -4 6 C-4 5.34 -4 4.68 -4 4 C-3.01 3.67 -2.02 3.34 -1 3 C-0.67 2.01 -0.34 1.02 0 0 Z " transform="translate(225,248)" style="fill: #D43B30;"/><path d="M0 0 C0.99 0.33 1.98 0.66 3 1 C3.8125 2.9375 3.8125 2.9375 4 5 C3.34 5.66 2.68 6.32 2 7 C1.74994614 10.04182893 1.74994614 10.04182893 2 13 C2.33 13.33 2.66 13.66 3 14 C3.66 13.34 4.32 12.68 5 12 C5 15.3 5 18.6 5 22 C4.01 22 3.02 22 2 22 C2 21.01 2 20.02 2 19 C0.02 19.33 -1.96 19.66 -4 20 C-3.50757813 19.49855469 -3.01515625 18.99710938 -2.5078125 18.48046875 C-0.46214834 15.11519222 -0.70851323 12.11636083 -0.875 8.3125 C-0.95263164 5.87166996 -0.99410634 3.44292252 -1 1 C-0.67 0.67 -0.34 0.34 0 0 Z " transform="translate(786,170)" style="fill: #3DA454;"/><path d="M0 0 C0.66 0 1.32 0 2 0 C0.125 7.625 0.125 7.625 -1 11 C-1.66 11 -2.32 11 -3 11 C-2.34 13.31 -1.68 15.62 -1 18 C-2.65 18.66 -4.3 19.32 -6 20 C-6 20.99 -6 21.98 -6 23 C-7.32 22.67 -8.64 22.34 -10 22 C-10 21.34 -10 20.68 -10 20 C-9.34 20 -8.68 20 -8 20 C-8 18.68 -8 17.36 -8 16 C-7.34 16 -6.68 16 -6 16 C-6 14.68 -6 13.36 -6 12 C-5.34 12 -4.68 12 -4 12 C-3.79503906 11.30132812 -3.59007812 10.60265625 -3.37890625 9.8828125 C-3.10949219 8.97273437 -2.84007812 8.06265625 -2.5625 7.125 C-2.29566406 6.22007812 -2.02882812 5.31515625 -1.75390625 4.3828125 C-1 2 -1 2 0 0 Z " transform="translate(154,230)" style="fill: #CB4231;"/><path d="M0 0 C1.65 0 3.3 0 5 0 C4.67 2.97 4.34 5.94 4 9 C4.99 9.66 5.98 10.32 7 11 C7.33 10.34 7.66 9.68 8 9 C8.33 9.99 8.66 10.98 9 12 C6 14 6 14 -1 14 C-0.67 9.38 -0.34 4.76 0 0 Z " transform="translate(771,176)" style="fill: #50AD6D;"/><path d="M0 0 C0.66 0 1.32 0 2 0 C2 1.65 2 3.3 2 5 C2.66 5.33 3.32 5.66 4 6 C4 6.66 4 7.32 4 8 C2.68 8 1.36 8 0 8 C0 7.34 0 6.68 0 6 C-0.66 6 -1.32 6 -2 6 C-2.33 7.32 -2.66 8.64 -3 10 C-3.66 10 -4.32 10 -5 10 C-5 10.99 -5 11.98 -5 13 C-6.32 13 -7.64 13 -9 13 C-9.33 13.99 -9.66 14.98 -10 16 C-11.24546405 13.50907189 -10.7767578 12.58919267 -10 10 C-9.34 10 -8.68 10 -8 10 C-8 9.34 -8 8.68 -8 8 C-7.34 8 -6.68 8 -6 8 C-6 7.34 -6 6.68 -6 6 C-5.34 6 -4.68 6 -4 6 C-4 5.34 -4 4.68 -4 4 C-3.34 4 -2.68 4 -2 4 C-2 3.34 -2 2.68 -2 2 C-1.34 2 -0.68 2 0 2 C0 1.34 0 0.68 0 0 Z " transform="translate(154,248)" style="fill: #499645;"/><path d="M0 0 C1.875 0.25 1.875 0.25 4 1 C6.35095161 4.17378467 6.39276422 7.15091063 6 11 C4.625 13.875 4.625 13.875 3 16 C2.34 16 1.68 16 1 16 C0.67 14.02 0.34 12.04 0 10 C0.66 10 1.32 10 2 10 C2 9.34 2 8.68 2 8 C1.34 8 0.68 8 0 8 C0 5.36 0 2.72 0 0 Z " transform="translate(272,200)" style="fill: #3FA95D;"/><path d="M0 0 C0 4 0 4 -1.6875 5.75 C-4.45004588 7.24326804 -5.90788426 7.55499513 -9 7 C-10.8125 5 -10.8125 5 -12 3 C-8.2391768 -0.7608232 -5.0273023 -0.25136512 0 0 Z " transform="translate(745,189)" style="fill: #F6FAF3;"/><path d="M0 0 C0.66 0.33 1.32 0.66 2 1 C2 1.66 2 2.32 2 3 C2.33 3.99 2.66 4.98 3 6 C0.02129623 6.99290126 -1.59182885 7.05524548 -4.66796875 6.87890625 C-6.00698242 6.80639648 -6.00698242 6.80639648 -7.37304688 6.73242188 C-8.30181641 6.67634766 -9.23058594 6.62027344 -10.1875 6.5625 C-11.12787109 6.51029297 -12.06824219 6.45808594 -13.03710938 6.40429688 C-15.35841501 6.27468082 -17.67928409 6.13971819 -20 6 C-20 5.34 -20 4.68 -20 4 C-14.72 4 -9.44 4 -4 4 C-4 3.34 -4 2.68 -4 2 C-2.125 0.9375 -2.125 0.9375 0 0 Z " transform="translate(448,216)" style="fill: #E1F1E2;"/><path d="M0 0 C1.65 0 3.3 0 5 0 C4.67 0.9075 4.34 1.815 4 2.75 C2.80394277 6.07045807 2.80394277 6.07045807 3 10 C3.61875 10.0825 4.2375 10.165 4.875 10.25 C7 11 7 11 8.25 13.0625 C8.4975 13.701875 8.745 14.34125 9 15 C7.23046875 15.6953125 7.23046875 15.6953125 5 16 C1.26553153 13.51035436 -1.57428942 10.33389317 -2.9375 6.0625 C-2.958125 5.381875 -2.97875 4.70125 -3 4 C-2.01 4 -1.02 4 0 4 C0 2.68 0 1.36 0 0 Z " transform="translate(723,224)" style="fill: #34A54F;"/><path d="M0 0 C3.9419115 1.27845778 5.8861477 2.41136702 8 6 C8.29296875 8.796875 8.29296875 8.796875 8.1875 11.75 C8.16042969 12.73484375 8.13335938 13.7196875 8.10546875 14.734375 C8.07066406 15.48203125 8.03585937 16.2296875 8 17 C7.34 17.33 6.68 17.66 6 18 C6 13.71 6 9.42 6 5 C5.34 5 4.68 5 4 5 C4.33 5.66 4.66 6.32 5 7 C5.13415472 9.6723621 5.04318541 12.32250488 5 15 C4.67 15 4.34 15 4 15 C3.67 11.7 3.34 8.4 3 5 C-0.3 4.34 -3.6 3.68 -7 3 C-7 2.67 -7 2.34 -7 2 C-4.69 2 -2.38 2 0 2 C0 1.34 0 0.68 0 0 Z " transform="translate(778,169)" style="fill: #BFE0C5;"/><path d="M0 0 C0 1.32 0 2.64 0 4 C1.32 4.66 2.64 5.32 4 6 C4 6.66 4 7.32 4 8 C9.28 8 14.56 8 20 8 C20 8.66 20 9.32 20 10 C6.11210762 11.22690583 6.11210762 11.22690583 0.93359375 8.21875 C-1.22760012 6.24835173 -3.1692252 4.27829753 -5 2 C-2 0 -2 0 0 0 Z " transform="translate(732,252)" style="fill: #C4E3C9;"/><path d="M0 0 C0.33 0.66 0.66 1.32 1 2 C0.67 2.66 0.34 3.32 0 4 C-0.66 4 -1.32 4 -2 4 C-2.144375 4.639375 -2.28875 5.27875 -2.4375 5.9375 C-3 8 -3 8 -4 9 C-5.92667507 9.08748207 -7.85651861 9.10697334 -9.78515625 9.09765625 C-10.95498047 9.09443359 -12.12480469 9.09121094 -13.33007812 9.08789062 C-15.17762695 9.07532227 -15.17762695 9.07532227 -17.0625 9.0625 C-18.91584961 9.05573242 -18.91584961 9.05573242 -20.80664062 9.04882812 C-23.87114117 9.03699608 -26.93554721 9.02051173 -30 9 C-30 8.67 -30 8.34 -30 8 C-28.19015625 7.94392578 -28.19015625 7.94392578 -26.34375 7.88671875 C-24.72913822 7.82100781 -23.11455622 7.75456229 -21.5 7.6875 C-20.31277344 7.65366211 -20.31277344 7.65366211 -19.1015625 7.61914062 C-13.47672537 7.3655619 -9.18698276 6.19319162 -4 4 C-3.01 3.67 -2.02 3.34 -1 3 C-0.67 2.01 -0.34 1.02 0 0 Z " transform="translate(284,245)" style="fill: #CCEFD3;"/><path d="M0 0 C0.99 0 1.98 0 3 0 C3.33 1.32 3.66 2.64 4 4 C4.66 4 5.32 4 6 4 C7.76462683 7.08809695 8 8.23312136 8 12 C6.68 12 5.36 12 4 12 C3.67 11.01 3.34 10.02 3 9 C2.01 10.485 2.01 10.485 1 12 C0.67 10.68 0.34 9.36 0 8 C0.66 8 1.32 8 2 8 C2 6.35 2 4.7 2 3 C1.01 3.33 0.02 3.66 -1 4 C-0.67 2.68 -0.34 1.36 0 0 Z " transform="translate(184,172)" style="fill: #DA382D;"/><path d="M0 0 C1.21236328 0.02707031 1.21236328 0.02707031 2.44921875 0.0546875 C3.37154297 0.08949219 3.37154297 0.08949219 4.3125 0.125 C4.3125 1.115 4.3125 2.105 4.3125 3.125 C3.73242188 3.22296875 3.15234375 3.3209375 2.5546875 3.421875 C-2.78396432 4.44379515 -6.37635232 5.80873256 -10.6875 9.125 C-11.0175 8.465 -11.3475 7.805 -11.6875 7.125 C-8.17289536 2.51965599 -5.99655731 -0.17381326 0 0 Z " transform="translate(773.6875,167.875)" style="fill: #DBF0DB;"/><path d="M0 0 C0.66 0 1.32 0 2 0 C2.13277344 0.67546875 2.26554688 1.3509375 2.40234375 2.046875 C2.57894531 2.93890625 2.75554687 3.8309375 2.9375 4.75 C3.11152344 5.63171875 3.28554687 6.5134375 3.46484375 7.421875 C3.92368488 9.63235053 4.43336074 11.81512068 5 14 C5.99 14 6.98 14 8 14 C8 14.99 8 15.98 8 17 C6.8553125 16.9071875 6.8553125 16.9071875 5.6875 16.8125 C2.95474688 16.74101915 2.95474688 16.74101915 1.1875 18.5 C0.795625 18.995 0.40375 19.49 0 20 C-0.66 19.34 -1.32 18.68 -2 18 C-0.35 16.35 1.3 14.7 3 13 C2.505 12.2575 2.01 11.515 1.5 10.75 C0 8 0 8 0 4 C-0.66 4 -1.32 4 -2 4 C-2 3.34 -2 2.68 -2 2 C-1.34 2 -0.68 2 0 2 C0 1.34 0 0.68 0 0 Z " transform="translate(230,250)" style="fill: #3D9D48;"/><path d="M0 0 C0.66 0.33 1.32 0.66 2 1 C2.44921875 2.8125 2.44921875 2.8125 2.6875 5 C2.77386719 5.721875 2.86023438 6.44375 2.94921875 7.1875 C2.97435547 8.0846875 2.97435547 8.0846875 3 9 C2 10 2 10 -0.13305664 10.11352539 C-1.04949951 10.10828857 -1.96594238 10.10305176 -2.91015625 10.09765625 C-3.89951172 10.09443359 -4.88886719 10.09121094 -5.90820312 10.08789062 C-6.94912109 10.07951172 -7.99003906 10.07113281 -9.0625 10.0625 C-10.10728516 10.05798828 -11.15207031 10.05347656 -12.22851562 10.04882812 C-14.8190666 10.03699913 -17.40950559 10.02051689 -20 10 C-20 9.67 -20 9.34 -20 9 C-17.03 9 -14.06 9 -11 9 C-10.67 8.01 -10.34 7.02 -10 6 C-10 6.99 -10 7.98 -10 9 C-6.7 9 -3.4 9 0 9 C-0.33 8.236875 -0.66 7.47375 -1 6.6875 C-2 4 -2 4 -2 1 C-1.34 0.67 -0.68 0.34 0 0 Z " transform="translate(538,223)" style="fill: #27A448;"/><path d="M0 0 C4.33125 -0.061875 4.33125 -0.061875 8.75 -0.125 C10.10496582 -0.15231201 10.10496582 -0.15231201 11.48730469 -0.18017578 C12.20821289 -0.1851709 12.92912109 -0.19016602 13.671875 -0.1953125 C14.4050293 -0.20578613 15.13818359 -0.21625977 15.89355469 -0.22705078 C18.29896076 0.03222456 19.91251494 0.80774075 22 2 C19.69 2.33 17.38 2.66 15 3 C15 2.34 15 1.68 15 1 C10.38 1 5.76 1 1 1 C1 8.92 1 16.84 1 25 C0.67 25 0.34 25 0 25 C0 16.75 0 8.5 0 0 Z " transform="translate(254,228)" style="fill: #52AE6F;"/><path d="M0 0 C5.625 -0.25 5.625 -0.25 9 2 C9 2.66 9 3.32 9 4 C9.61875 4.12375 10.2375 4.2475 10.875 4.375 C13 5 13 5 15 7 C13.68 7.99 12.36 8.98 11 10 C9.16375669 8.52444734 7.3310715 7.04446569 5.5 5.5625 C4.4790625 4.73878906 3.458125 3.91507813 2.40625 3.06640625 C1.6121875 2.38449219 0.818125 1.70257813 0 1 C0 0.67 0 0.34 0 0 Z " transform="translate(607,204)" style="fill: #3DA75D;"/><path d="M0 0 C1.258125 -0.04125 2.51625 -0.0825 3.8125 -0.125 C4.52019531 -0.14820313 5.22789062 -0.17140625 5.95703125 -0.1953125 C8 0 8 0 11 2 C12.31886422 5.95659266 12.26518132 8.82339427 12 13 C11.01 13.66 10.02 14.32 9 15 C6.75688228 11.63532342 6.84142454 11.14809622 7.4375 7.375 C7.66089867 5.92173285 7.85715985 4.46338274 8 3 C6.03177114 1.03177114 2.65191291 1.33751619 0 1 C0 0.67 0 0.34 0 0 Z " transform="translate(770,172)" style="fill: #2F9C4F;"/><path d="M0 0 C3.98381075 2.16264012 6.88983545 4.71211176 10 8 C8.02 8.33 6.04 8.66 4 9 C2.98888907 12.04913228 2.98888907 12.04913228 4 15 C0.83884224 13.63016497 0.0072908 13.0109362 -2 10 C-1.34 10 -0.68 10 0 10 C0.33 9.34 0.66 8.68 1 8 C1.66 8 2.32 8 3 8 C2.67 6.02 2.34 4.04 2 2 C1.34 2 0.68 2 0 2 C0 1.34 0 0.68 0 0 Z " transform="translate(102,230)" style="fill: #E3F5E7;"/><path d="M0 0 C0.33 0.99 0.66 1.98 1 3 C5.27709699 3 6.55930376 2.29379749 10 0 C10 0.66 10 1.32 10 2 C9.34 2 8.68 2 8 2 C7.855625 2.94875 7.71125 3.8975 7.5625 4.875 C7 8 7 8 6 10 C4.02 9.34 2.04 8.68 0 8 C0 5.36 0 2.72 0 0 Z " transform="translate(160,200)" style="fill: #3D9F4A;"/><path d="M0 0 C6.27 0.33 12.54 0.66 19 1 C19 1.99 19 2.98 19 4 C17.02 4.99 17.02 4.99 15 6 C15.66 5.01 16.32 4.02 17 3 C7.9854577 2.07608617 7.9854577 2.07608617 -0.484375 4.3359375 C-2.31729517 5.9434277 -2.31729517 5.9434277 -3.80078125 7.6875 C-4.19652344 8.120625 -4.59226562 8.55375 -5 9 C-5.66 9 -6.32 9 -7 9 C-6.67 8.01 -6.34 7.02 -6 6 C-5.360625 5.87625 -4.72125 5.7525 -4.0625 5.625 C-3.381875 5.41875 -2.70125 5.2125 -2 5 C-1.34 3.35 -0.68 1.7 0 0 Z " transform="translate(732,186)" style="fill: #49A967;"/><path d="M0 0 C1.32 0.33 2.64 0.66 4 1 C-0.2672723 7.1754022 -4.81309279 9.91889917 -12 12 C-12.66 12 -13.32 12 -14 12 C-14 11.34 -14 10.68 -14 10 C-12.35 10 -10.7 10 -9 10 C-9 9.34 -9 8.68 -9 8 C-8.01 8 -7.02 8 -6 8 C-6 7.34 -6 6.68 -6 6 C-4 5 -4 5 -1 4 C-0.26676204 1.98491642 -0.26676204 1.98491642 0 0 Z " transform="translate(292,248)" style="fill: #D8F2DB;"/><path d="M0 0 C0.66 0 1.32 0 2 0 C2.02698189 1.62490954 2.04638757 3.24994633 2.0625 4.875 C2.07410156 5.77992188 2.08570313 6.68484375 2.09765625 7.6171875 C2 10 2 10 1 12 C0.34 12 -0.32 12 -1 12 C-1.23460937 12.64453125 -1.46921875 13.2890625 -1.7109375 13.953125 C-3 16 -3 16 -5.1640625 16.609375 C-5.97617187 16.65578125 -6.78828125 16.7021875 -7.625 16.75 C-8.44226563 16.80671875 -9.25953125 16.8634375 -10.1015625 16.921875 C-10.72804688 16.94765625 -11.35453125 16.9734375 -12 17 C-4.5 12 -4.5 12 -2 12 C-1.34 8.04 -0.68 4.08 0 0 Z " transform="translate(460,236)" style="fill: #D6F3DA;"/><path d="M0 0 C0 0.66 0 1.32 0 2 C-0.99 2 -1.98 2 -3 2 C-3 3.32 -3 4.64 -3 6 C-3 6.33 -3 6.66 -3 7 C-8.28 6.67 -13.56 6.34 -19 6 C-19 5.67 -19 5.34 -19 5 C-18.10796875 4.80664062 -17.2159375 4.61328125 -16.296875 4.4140625 C-15.12640625 4.15367187 -13.9559375 3.89328125 -12.75 3.625 C-11.58984375 3.36976563 -10.4296875 3.11453125 -9.234375 2.8515625 C-6.08736839 2.02300279 -3.20290958 0 0 0 Z " transform="translate(464,256)" style="fill: #44A55E;"/><path d="M0 0 C2 0.75 2 0.75 4 3.75 C3.96856707 6.48990408 3.44521663 9.03417854 3 11.75 C2.01 11.75 1.02 11.75 0 11.75 C0 9.11 0 6.47 0 3.75 C-0.99 3.42 -1.98 3.09 -3 2.75 C-3.33 2.09 -3.66 1.43 -4 0.75 C-2 -0.25 -2 -0.25 0 0 Z " transform="translate(700,228.25)" style="fill: #36A24A;"/><path d="M0 0 C4.4422279 0.50768319 6.6253835 2.15821768 10 5 C10.99 5.33 11.98 5.66 13 6 C13 6.99 13 7.98 13 9 C13.99 9.33 14.98 9.66 16 10 C15.34 10.66 14.68 11.32 14 12 C11.66372963 10.19117843 9.33092238 8.37818954 7 6.5625 C6.33226562 6.04623047 5.66453125 5.52996094 4.9765625 4.99804688 C3.29922866 3.68869954 1.64735006 2.34687677 0 1 C0 0.67 0 0.34 0 0 Z " transform="translate(592,192)" style="fill: #3DA65E;"/><path d="M0 0 C5.21444755 2.76684972 9.78371969 5.83498145 14 10 C14 10.33 14 10.66 14 11 C12.02 11 10.04 11 8 11 C8 9.68 8 8.36 8 7 C7.01 7 6.02 7 5 7 C5 6.34 5 5.68 5 5 C3.35 5 1.7 5 0 5 C0 3.35 0 1.7 0 0 Z " transform="translate(56,193)" style="fill: #DFF6E5;"/><path d="M0 0 C1.4606285 2.64738916 2 3.89448334 2 7 C-0.64 7.33 -3.28 7.66 -6 8 C-6 7.01 -6 6.02 -6 5 C-5.01 4.67 -4.02 4.34 -3 4 C-5.97 3.67 -8.94 3.34 -12 3 C-12 2.67 -12 2.34 -12 2 C-11.21753906 1.93941406 -10.43507813 1.87882813 -9.62890625 1.81640625 C-8.61699219 1.73261719 -7.60507812 1.64882812 -6.5625 1.5625 C-5.55316406 1.48128906 -4.54382813 1.40007812 -3.50390625 1.31640625 C-1.06359221 1.26788532 -1.06359221 1.26788532 0 0 Z " transform="translate(781,190)" style="fill: #2DA74E;"/><path d="M0 0 C0.66 0.99 1.32 1.98 2 3 C1.67 3.66 1.34 4.32 1 5 C0.34 5 -0.32 5 -1 5 C-1 5.99 -1 6.98 -1 8 C-1.99 8 -2.98 8 -4 8 C-4 9.65 -4 11.3 -4 13 C-4.66 13 -5.32 13 -6 13 C-6 12.01 -6 11.02 -6 10 C-6.66 10 -7.32 10 -8 10 C-8 9.34 -8 8.68 -8 8 C-7.34 8 -6.68 8 -6 8 C-6 7.34 -6 6.68 -6 6 C-5.34 6 -4.68 6 -4 6 C-4 5.34 -4 4.68 -4 4 C-3.34 4 -2.68 4 -2 4 C-2 3.34 -2 2.68 -2 2 C-1.34 2 -0.68 2 0 2 C0 1.34 0 0.68 0 0 Z " transform="translate(172,230)" style="fill: #3D9C47;"/><path d="M0 0 C0.33 0.66 0.66 1.32 1 2 C1.99 2 2.98 2 4 2 C4 2.66 4 3.32 4 4 C2.46875 5.2890625 2.46875 5.2890625 0.5 6.625 C-0.1496875 7.07101563 -0.799375 7.51703125 -1.46875 7.9765625 C-2.22671875 8.48316406 -2.22671875 8.48316406 -3 9 C-4.32 8.34 -5.64 7.68 -7 7 C-6.67 6.01 -6.34 5.02 -6 4 C-5.01 4 -4.02 4 -3 4 C-2.67 3.34 -2.34 2.68 -2 2 C-1.34 2 -0.68 2 0 2 C0 1.34 0 0.68 0 0 Z " transform="translate(212,244)" style="fill: #3D9F49;"/><path d="M0 0 C0.66 0 1.32 0 2 0 C1.42415568 2.38564077 0.77772405 4.66682784 0 7 C1.32 7.66 2.64 8.32 4 9 C-2.625 9.125 -2.625 9.125 -6 8 C-6 7.34 -6 6.68 -6 6 C-5.34 6 -4.68 6 -4 6 C-4 5.34 -4 4.68 -4 4 C-3.34 4 -2.68 4 -2 4 C-2 3.34 -2 2.68 -2 2 C-1.34 2 -0.68 2 0 2 C0 1.34 0 0.68 0 0 Z " transform="translate(162,240)" style="fill: #389F4B;"/><path d="M0 0 C0.66 0 1.32 0 2 0 C2.33 1.98 2.66 3.96 3 6 C3.99 6.33 4.98 6.66 6 7 C6 8.65 6 10.3 6 12 C6.66 12 7.32 12 8 12 C8 12.99 8 13.98 8 15 C7.34 15 6.68 15 6 15 C4.23828125 12.48046875 4.23828125 12.48046875 2.3125 9.1875 C1.66925781 8.10855469 1.02601563 7.02960938 0.36328125 5.91796875 C-1 3 -1 3 0 0 Z " transform="translate(562,235)" style="fill: #36A158;"/><path d="M0 0 C2.02054804 1.64169528 4.02043058 3.30911778 6 5 C6 5.33 6 5.66 6 6 C3.36 6.66 0.72 7.32 -2 8 C-1.67 9.32 -1.34 10.64 -1 12 C-4.16115776 10.63016497 -4.9927092 10.0109362 -7 7 C-5.68 7.33 -4.36 7.66 -3 8 C-3 7.34 -3 6.68 -3 6 C-2.34 5.67 -1.68 5.34 -1 5 C-0.34444881 2.47266765 -0.34444881 2.47266765 0 0 Z " transform="translate(86,216)" style="fill: #E1F2E5;"/><path d="M0 0 C4 2 4 2 6 5 C4.68 5 3.36 5 2 5 C1.67 10.94 1.34 16.88 1 23 C0.67 23 0.34 23 0 23 C0 15.41 0 7.82 0 0 Z " transform="translate(46,185)" style="fill: #EAF8E6;"/><path d="M0 0 C1.98 0 3.96 0 6 0 C5.57847656 0.38929688 5.15695312 0.77859375 4.72265625 1.1796875 C-0.11674498 6.12157017 -0.97254366 10.1770992 -1 17 C-1.33 17 -1.66 17 -2 17 C-2.19448477 14.87562788 -2.38038289 12.75046809 -2.5625 10.625 C-2.66691406 9.44164062 -2.77132812 8.25828125 -2.87890625 7.0390625 C-3 4 -3 4 -2 2 C-1.34 2 -0.68 2 0 2 C0 1.34 0 0.68 0 0 Z " transform="translate(763,168)" style="fill: #44AC65;"/><path d="M0 0 C2.71595986 3.1540179 3.96846241 4.87384964 5 9 C1.04 9 -2.92 9 -7 9 C-7.33 8.34 -7.66 7.68 -8 7 C-4.7 7 -1.4 7 2 7 C2 6.34 2 5.68 2 5 C1.34 4.67 0.68 4.34 0 4 C-0.33 3.34 -0.66 2.68 -1 2 C-0.67 1.34 -0.34 0.68 0 0 Z " transform="translate(570,253)" style="fill: #C3E5C7;"/><path d="M0 0 C1.32 0.33 2.64 0.66 4 1 C3.67 1.99 3.34 2.98 3 4 C2.34 4 1.68 4 1 4 C1 5.32 1 6.64 1 8 C0.34 8 -0.32 8 -1 8 C-1 8.66 -1 9.32 -1 10 C-2.32 10 -3.64 10 -5 10 C-4.34 8.02 -3.68 6.04 -3 4 C-2.34 4 -1.68 4 -1 4 C-0.67 2.68 -0.34 1.36 0 0 Z " transform="translate(143,254)" style="fill: #C64736;"/><path d="M0 0 C0.33 0 0.66 0 1 0 C1 1.65 1 3.3 1 5 C3.97 5 6.94 5 10 5 C10 5.66 10 6.32 10 7 C5.71 7 1.42 7 -3 7 C-2 3 -2 3 0 0 Z " transform="translate(487,255)" style="fill: #C1E2C4;"/><path d="M0 0 C0.33 0.99 0.66 1.98 1 3 C4.465 2.505 4.465 2.505 8 2 C7.34 3.65 6.68 5.3 6 7 C5.2575 6.608125 4.515 6.21625 3.75 5.8125 C2.8425 5.544375 1.935 5.27625 1 5 C-1.32511472 6.26352052 -1.32511472 6.26352052 -3 8 C-3 5.69 -3 3.38 -3 1 C-2.01 0.67 -1.02 0.34 0 0 Z " transform="translate(184,229)" style="fill: #3FA155;"/><path d="M0 0 C1.2065625 0.495 1.2065625 0.495 2.4375 1 C4.69681125 2.06059041 4.69681125 2.06059041 6 2 C6 4.31 6 6.62 6 9 C4.68 9 3.36 9 2 9 C-0.29013653 5.5647952 -0.17842973 4.014669 0 0 Z " transform="translate(280,207)" style="fill: #FAFAFC;"/><path d="M0 0 C1.32 0.33 2.64 0.66 4 1 C3.67 1.33 3.34 1.66 3 2 C2.84141158 4.14386657 2.74870702 6.29266838 2.68359375 8.44140625 C2.64169922 9.74658203 2.59980469 11.05175781 2.55664062 12.39648438 C2.51682392 13.7851533 2.47711175 15.17382522 2.4375 16.5625 C2.39432011 17.95509183 2.350706 19.34767028 2.30664062 20.74023438 C2.20014124 24.16004801 2.09813077 27.57993763 2 31 C1.67 31 1.34 31 1 31 C0.67 20.77 0.34 10.54 0 0 Z " transform="translate(692,229)" style="fill: #F2FEF1;"/><path d="M0 0 C2.37948772 0.17625835 3.70225849 0.69719773 5.37890625 2.40234375 C6.62115486 3.90649092 7.81376056 5.45129851 9 7 C8.01 7.495 8.01 7.495 7 8 C6.01 7.01 5.02 6.02 4 5 C3.67 5.66 3.34 6.32 3 7 C1.35 6.67 -0.3 6.34 -2 6 C-1.34 4.02 -0.68 2.04 0 0 Z " transform="translate(460,224)" style="fill: #E2F4E5;"/><path d="M0 0 C0.66 0 1.32 0 2 0 C2 0.66 2 1.32 2 2 C3.65 2.33 5.3 2.66 7 3 C6.79375 3.70125 6.5875 4.4025 6.375 5.125 C5.92149643 8.60186072 6.72459723 10.77398123 8 14 C7.34 14 6.68 14 6 14 C4.99515796 12.04414675 3.99626195 10.08523763 3 8.125 C2.1646875 6.48917969 2.1646875 6.48917969 1.3125 4.8203125 C0 2 0 2 0 0 Z " transform="translate(194,186)" style="fill: #5D8F47;"/><path d="M0 0 C0.66 0.33 1.32 0.66 2 1 C2 4.96 2 8.92 2 13 C-1 12 -1 12 -2 10 C-2.16796875 8.125 -2.16796875 8.125 -2.1875 6 C-2.20167969 5.29875 -2.21585938 4.5975 -2.23046875 3.875 C-2 2 -2 2 0 0 Z " transform="translate(764,175)" style="fill: #EDF9EA;"/><path d="M0 0 C1.27310312 0.93441535 2.543388 1.87267111 3.8125 2.8125 C4.52019531 3.33457031 5.22789062 3.85664063 5.95703125 4.39453125 C7.78531393 5.83128877 9.39896688 7.31815763 11 9 C9.68 9 8.36 9 7 9 C7 8.34 7 7.68 7 7 C6.34 7 5.68 7 5 7 C4.67 7.66 4.34 8.32 4 9 C0 3.375 0 3.375 0 0 Z " transform="translate(651,253)" style="fill: #37A155;"/><path d="M0 0 C0.97453125 0.13921875 1.9490625 0.2784375 2.953125 0.421875 C3.93796875 0.55078125 4.9228125 0.6796875 5.9375 0.8125 C6.68515625 0.93109375 7.4328125 1.0496875 8.203125 1.171875 C7.08984375 2.66015625 7.08984375 2.66015625 5.203125 4.171875 C2.28515625 4.46484375 2.28515625 4.46484375 -0.984375 4.359375 C-2.07105469 4.33230469 -3.15773438 4.30523437 -4.27734375 4.27734375 C-5.10878906 4.24253906 -5.94023437 4.20773438 -6.796875 4.171875 C-3.5802448 0.22001504 -3.5802448 0.22001504 0 0 Z " transform="translate(262.796875,215.828125)" style="fill: #3AA75C;"/><path d="M0 0 C2.31 0 4.62 0 7 0 C6.35546875 0.21398437 5.7109375 0.42796875 5.046875 0.6484375 C2.72160885 1.8473523 2.72160885 1.8473523 2.390625 4.6015625 C2.34421875 5.59929687 2.2978125 6.59703125 2.25 7.625 C2.19328125 8.62789062 2.1365625 9.63078125 2.078125 10.6640625 C2.05234375 11.43492187 2.0265625 12.20578125 2 13 C1.34 13 0.68 13 0 13 C0 8.71 0 4.42 0 0 Z " transform="translate(769,174)" style="fill: #EFFCED;"/><path d="M0 0 C1.65 0 3.3 0 5 0 C5.33 1.65 5.66 3.3 6 5 C4.35 6.32 2.7 7.64 1 9 C0.67 8.34 0.34 7.68 0 7 C0.9375 4.375 0.9375 4.375 2 2 C1.34 2 0.68 2 0 2 C0 1.34 0 0.68 0 0 Z " transform="translate(190,228)" style="fill: #28A84C;"/><path d="M0 0 C0.66 0 1.32 0 2 0 C2.88492145 2.47778006 3.11637742 3.66056586 2.25 6.1875 C1 8 1 8 -2 9 C-2.33 8.01 -2.66 7.02 -3 6 C-3.66 5.67 -4.32 5.34 -5 5 C-4.01 4.67 -3.02 4.34 -2 4 C-0.79117904 1.99983534 -0.79117904 1.99983534 0 0 Z " transform="translate(157,218)" style="fill: #3F9E4A;"/><path d="M0 0 C0.74958984 0.01353516 1.49917969 0.02707031 2.27148438 0.04101562 C4.11879767 0.07631461 5.96574066 0.13012083 7.8125 0.1875 C6.4925 1.5075 5.1725 2.8275 3.8125 4.1875 C3.4825 3.5275 3.1525 2.8675 2.8125 2.1875 C0.9253125 2.125625 0.9253125 2.125625 -1 2.0625 C-1.70769531 2.03929687 -2.41539062 2.01609375 -3.14453125 1.9921875 C-5.50109719 2.05495538 -5.50109719 2.05495538 -8.1875 4.1875 C-9.1775 3.8575 -10.1675 3.5275 -11.1875 3.1875 C-8.45797954 -0.92296361 -4.41882331 -0.15051014 0 0 Z " transform="translate(742.1875,187.8125)" style="fill: #DFF6DF;"/><path d="M0 0 C-0.33 0.66 -0.66 1.32 -1 2 C-6.28 2 -11.56 2 -17 2 C-17 1.67 -17 1.34 -17 1 C-11.02197063 -1.20927172 -6.26039609 -0.93213141 0 0 Z " transform="translate(752,185)" style="fill: #239E46;"/><path d="M0 0 C0.66 0.99 1.32 1.98 2 3 C1.01 3.33 0.02 3.66 -1 4 C-0.34 6.31 0.32 8.62 1 11 C0.01 10.67 -0.98 10.34 -2 10 C-2.33 10.66 -2.66 11.32 -3 12 C-3.99 12 -4.98 12 -6 12 C-5.34 10.02 -4.68 8.04 -4 6 C-3.34 6 -2.68 6 -2 6 C-2 4.68 -2 3.36 -2 2 C-1.34 2 -0.68 2 0 2 C0 1.34 0 0.68 0 0 Z " transform="translate(182,176)" style="fill: #BB4F36;"/><path d="M0 0 C0.33 0 0.66 0 1 0 C1.33 1.98 1.66 3.96 2 6 C1.0409375 6.37125 1.0409375 6.37125 0.0625 6.75 C-2.18741541 7.81562433 -2.18741541 7.81562433 -2.75 10.125 C-2.8325 10.74375 -2.915 11.3625 -3 12 C-4.32 12 -5.64 12 -7 12 C-5.61964507 9.14940657 -4.10703513 6.44119096 -2.4375 3.75 C-2.00308594 3.04359375 -1.56867188 2.3371875 -1.12109375 1.609375 C-0.75113281 1.07828125 -0.38117188 0.5471875 0 0 Z " transform="translate(507,244)" style="fill: #41A561;"/><path d="M0 0 C1.98 0 3.96 0 6 0 C6 0.66 6 1.32 6 2 C5.34 2 4.68 2 4 2 C4 2.66 4 3.32 4 4 C3.34 4 2.68 4 2 4 C2 4.66 2 5.32 2 6 C1.34 6 0.68 6 0 6 C0 6.66 0 7.32 0 8 C-0.66 8 -1.32 8 -2 8 C-2.33 8.66 -2.66 9.32 -3 10 C-3 7.69 -3 5.38 -3 3 C-1.68 3.33 -0.36 3.66 1 4 C0.67 2.68 0.34 1.36 0 0 Z " transform="translate(172,224)" style="fill: #D43E31;"/><path d="M0 0 C7.48291572 6.15034169 7.48291572 6.15034169 10 10 C7.0434802 9.36646004 4.45292525 8.79881185 2 7 C0.75 3.375 0.75 3.375 0 0 Z " transform="translate(719,246)" style="fill: #38A158;"/><path d="M0 0 C0.66 0 1.32 0 2 0 C2 0.66 2 1.32 2 2 C2.66 2 3.32 2 4 2 C4 2.66 4 3.32 4 4 C4.66 4 5.32 4 6 4 C6 4.66 6 5.32 6 6 C6.66 6 7.32 6 8 6 C7.67 6.99 7.34 7.98 7 9 C6.34 8.67 5.68 8.34 5 8 C5 7.34 5 6.68 5 6 C3.35 6 1.7 6 0 6 C0 4.02 0 2.04 0 0 Z " transform="translate(190,222)" style="fill: #3C9C46;"/><path d="M0 0 C3.05882701 1.52941351 3.68951234 3.94219546 5 7 C4.67 7.66 4.34 8.32 4 9 C2.35 9 0.7 9 -1 9 C-1.625 7.1875 -1.625 7.1875 -2 5 C-1.34 4.01 -0.68 3.02 0 2 C0 1.34 0 0.68 0 0 Z " transform="translate(535,215)" style="fill: #41AB60;"/><path d="M0 0 C-1.2491742 3.45925163 -2.67527795 6.14693203 -5 9 C-5.66 8.67 -6.32 8.34 -7 8 C-6.01 6.35 -5.02 4.7 -4 3 C-4.66 3 -5.32 3 -6 3 C-6 2.01 -6 1.02 -6 0 C-3 -1 -3 -1 0 0 Z " transform="translate(488,253)" style="fill: #379F52;"/><path d="M0 0 C-1.56641751 4.30764815 -3.68336156 8.06171464 -6 12 C-6.66 10.68 -7.32 9.36 -8 8 C-2.7826087 0 -2.7826087 0 0 0 Z " transform="translate(504,248)" style="fill: #E6F6E7;"/><path d="M0 0 C1.65 0 3.3 0 5 0 C4.21681311 3.91593446 2.60820142 7.36406635 1 11 C0.67 11 0.34 11 0 11 C0 7.37 0 3.74 0 0 Z " transform="translate(771,176)" style="fill: #8BC697;"/><path d="M0 0 C0 3.96 0 7.92 0 12 C-0.99 11.34 -1.98 10.68 -3 10 C-3.36328125 8.125 -3.36328125 8.125 -3.3125 6 C-3.30669922 4.948125 -3.30669922 4.948125 -3.30078125 3.875 C-2.9816273 1.8854689 -2.39941085 0 0 0 Z " transform="translate(768,174)" style="fill: #39A465;"/><path d="M0 0 C1.65 0 3.3 0 5 0 C5 0.66 5 1.32 5 2 C4.34 2 3.68 2 3 2 C3 2.99 3 3.98 3 5 C1.68 5 0.36 5 -1 5 C-1.33 5.99 -1.66 6.98 -2 8 C-3.24546405 5.50907189 -2.7767578 4.58919267 -2 2 C-1.34 2 -0.68 2 0 2 C0 1.34 0 0.68 0 0 Z " transform="translate(146,256)" style="fill: #3C9B46;"/><path d="M0 0 C0.33 0 0.66 0 1 0 C1.33 5.28 1.66 10.56 2 16 C0.02 16.33 -1.96 16.66 -4 17 C-3.525625 16.05125 -3.05125 15.1025 -2.5625 14.125 C-0.57242218 9.5534533 -0.28773098 4.93111373 0 0 Z " transform="translate(297,236)" style="fill: #59AE72;"/><path d="M0 0 C1.65 0 3.3 0 5 0 C5.66 1.65 6.32 3.3 7 5 C5.68 5.99 4.36 6.98 3 8 C2.01 5.36 1.02 2.72 0 0 Z " transform="translate(173,234)" style="fill: #399F53;"/><path d="M0 0 C3.3 0 6.6 0 10 0 C6.36997711 3.63002289 1.51155044 3.05557854 -3.375 3.0625 C-4.91672526 3.04658248 -6.4584364 3.02741912 -8 3 C-8 2.67 -8 2.34 -8 2 C-5.36 2 -2.72 2 0 2 C0 1.34 0 0.68 0 0 Z " transform="translate(448,258)" style="fill: #D6F7DE;"/><path d="M0 0 C0.99 0.66 1.98 1.32 3 2 C3 3.32 3 4.64 3 6 C0.08517222 6.80967438 -1.46113217 7.21845993 -4.3125 6.0625 C-4.869375 5.711875 -5.42625 5.36125 -6 5 C-6 4.34 -6 3.68 -6 3 C-3.69 3.33 -1.38 3.66 1 4 C0.67 2.68 0.34 1.36 0 0 Z " transform="translate(282,233)" style="fill: #41A456;"/><path d="M0 0 C1.65 0.33 3.3 0.66 5 1 C5 1.66 5 2.32 5 3 C4.34 3 3.68 3 3 3 C3 3.66 3 4.32 3 5 C2.34 5 1.68 5 1 5 C1 5.66 1 6.32 1 7 C0.01 7.33 -0.98 7.66 -2 8 C-2 6.35 -2 4.7 -2 3 C-1.34 3 -0.68 3 0 3 C0 2.01 0 1.02 0 0 Z " transform="translate(161,235)" style="fill: #D9382D;"/><path d="M0 0 C2.85793316 2.85793316 2.40799941 5.14665584 2.625 9.125 C2.69976562 10.40632812 2.77453125 11.68765625 2.8515625 13.0078125 C2.92503906 14.48894531 2.92503906 14.48894531 3 16 C1.35 16.66 -0.3 17.32 -2 18 C-1.67257812 17.48953125 -1.34515625 16.9790625 -1.0078125 16.453125 C0.35648384 13.13227963 0.1912273 10.32627432 0.125 6.75 C0.10695313 5.48671875 0.08890625 4.2234375 0.0703125 2.921875 C0.04710937 1.95765625 0.02390625 0.9934375 0 0 Z " transform="translate(287,200)" style="fill: #64C380;"/><path d="M0 0 C3.53372712 1.96318174 6.24479785 4.04070881 9 7 C6.36 6.67 3.72 6.34 1 6 C0.4465236 3.92446352 0 2.15634036 0 0 Z " transform="translate(632,238)" style="fill: #3AA058;"/><path d="M0 0 C0.66 0.33 1.32 0.66 2 1 C2.08121924 2.60332791 2.13929134 4.20784026 2.1875 5.8125 C2.22230469 6.70582031 2.25710938 7.59914062 2.29296875 8.51953125 C1.95081002 11.41647515 1.24606427 12.22555028 -1 14 C-2 13 -2 13 -2.0625 10.4375 C-2.041875 9.633125 -2.02125 8.82875 -2 8 C-1.01 8 -0.02 8 1 8 C0.67 5.36 0.34 2.72 0 0 Z " transform="translate(458,234)" style="fill: #47A860;"/><path d="M0 0 C2.70165032 0 3.14905916 1.14905916 5 3 C5.66 3 6.32 3 7 3 C7.66 4.32 8.32 5.64 9 7 C7.3125 7.8125 7.3125 7.8125 5 8 C2.25 5.75 2.25 5.75 0 3 C0 2.01 0 1.02 0 0 Z " transform="translate(723,232)" style="fill: #39A85D;"/><path d="M0 0 C1.8125 0.125 1.8125 0.125 4 1 C5.8125 3.875 5.8125 3.875 7 7 C6.67 7.99 6.34 8.98 6 10 C5.34 10 4.68 10 4 10 C4 8.68 4 7.36 4 6 C3.34 6 2.68 6 2 6 C2 4.68 2 3.36 2 2 C1.34 2 0.68 2 0 2 C0 1.34 0 0.68 0 0 Z " transform="translate(214,226)" style="fill: #559043;"/><path d="M0 0 C2.475 0.495 2.475 0.495 5 1 C5 1.66 5 2.32 5 3 C5.66 3 6.32 3 7 3 C7.33 4.65 7.66 6.3 8 8 C6.66102417 7.04956626 5.32894573 6.08940853 4 5.125 C3.2575 4.59132812 2.515 4.05765625 1.75 3.5078125 C1.1725 3.01023438 0.595 2.51265625 0 2 C0 1.34 0 0.68 0 0 Z " transform="translate(107,232)" style="fill: #46A561;"/><path d="M0 0 C1.65 0 3.3 0 5 0 C5.33 0.99 5.66 1.98 6 3 C6.99 2.67 7.98 2.34 9 2 C9 2.66 9 3.32 9 4 C8.34 4 7.68 4 7 4 C7 4.66 7 5.32 7 6 C7.66 6.33 8.32 6.66 9 7 C6 7 6 7 3.8125 5.125 C2 3 2 3 2 1 C1.34 0.67 0.68 0.34 0 0 Z " transform="translate(462,224)" style="fill: #3FA75F;"/><path d="M0 0 C0 0.66 0 1.32 0 2 C-0.99 2 -1.98 2 -3 2 C-3 2.66 -3 3.32 -3 4 C-3.66 4 -4.32 4 -5 4 C-5 4.66 -5 5.32 -5 6 C-5.99 5.67 -6.98 5.34 -8 5 C-8 4.01 -8 3.02 -8 2 C-4.77208445 -0.1519437 -3.71599191 -0.20086443 0 0 Z " transform="translate(92,222)" style="fill: #FCFBFA;"/><path d="M0 0 C0.99 0.33 1.98 0.66 3 1 C3.8125 2.9375 3.8125 2.9375 4 5 C3.34 5.66 2.68 6.32 2 7 C1.60235737 8.98821313 1.26224651 10.98944339 1 13 C0.67 13 0.34 13 0 13 C-0.19397476 11.02145742 -0.38001321 9.0421352 -0.5625 7.0625 C-0.66691406 5.96035156 -0.77132812 4.85820312 -0.87890625 3.72265625 C-0.91886719 2.82417969 -0.95882812 1.92570313 -1 1 C-0.67 0.67 -0.34 0.34 0 0 Z " transform="translate(786,170)" style="fill: #41AA5E;"/><path d="M0 0 C2.97 0.495 2.97 0.495 6 1 C6 1.99 6 2.98 6 4 C5.01 4 4.02 4 3 4 C3 3.34 3 2.68 3 2 C2.34 2 1.68 2 1 2 C1.33 3.32 1.66 4.64 2 6 C1.01 5.67 0.02 5.34 -1 5 C-0.67 3.35 -0.34 1.7 0 0 Z " transform="translate(156,248)" style="fill: #24AB4A;"/><path d="M0 0 C1.14926266 0.95421808 2.29430541 1.91352045 3.4375 2.875 C4.39462891 3.67550781 4.39462891 3.67550781 5.37109375 4.4921875 C7 6 7 6 8 8 C6.35 7.67 4.7 7.34 3 7 C3 6.34 3 5.68 3 5 C2.01 4.67 1.02 4.34 0 4 C0 2.68 0 1.36 0 0 Z " transform="translate(729,240)" style="fill: #DBEFDA;"/><path d="M0 0 C2.475 0.99 2.475 0.99 5 2 C3.37660195 3.70884005 1.70680947 5.37446717 0 7 C-0.66 7 -1.32 7 -2 7 C-2.125 4.625 -2.125 4.625 -2 2 C-1.34 1.34 -0.68 0.68 0 0 Z " transform="translate(699,210)" style="fill: #37A559;"/><path d="M0 0 C0.66 0 1.32 0 2 0 C2 0.66 2 1.32 2 2 C2.66 2 3.32 2 4 2 C4.33 3.32 4.66 4.64 5 6 C2.69 6 0.38 6 -2 6 C-1.34 4.02 -0.68 2.04 0 0 Z " transform="translate(528,206)" style="fill: #3EA35B;"/><path d="M0 0 C0.66 0.33 1.32 0.66 2 1 C1.4375 2.8125 1.4375 2.8125 0 5 C-3.50990464 6.78686054 -6.04124604 8 -10 8 C-6.66666667 5.33333333 -3.33333333 2.66666667 0 0 Z " transform="translate(733,201)" style="fill: #51AA6C;"/><path d="M0 0 C0.33 0.66 0.66 1.32 1 2 C4.3 2 7.6 2 11 2 C10.67 2.66 10.34 3.32 10 4 C6.37 4 2.74 4 -1 4 C-0.67 2.68 -0.34 1.36 0 0 Z " transform="translate(255,192)" style="fill: #EDF8E7;"/><path d="M0 0 C3.67420866 0.30618405 4.78135513 0.75771784 7.3125 3.5625 C8.1478125 4.7690625 8.1478125 4.7690625 9 6 C8.34 6.66 7.68 7.32 7 8 C7 7.34 7 6.68 7 6 C6.34 6 5.68 6 5 6 C5 5.34 5 4.68 5 4 C4.01 4 3.02 4 2 4 C2 3.34 2 2.68 2 2 C1.34 2 0.68 2 0 2 C0 1.34 0 0.68 0 0 Z " transform="translate(203,234)" style="fill: #CF3F32;"/><path d="M0 0 C0.66 0 1.32 0 2 0 C2 0.66 2 1.32 2 2 C2.99 2.33 3.98 2.66 5 3 C5 3.99 5 4.98 5 6 C4.01 6.33 3.02 6.66 2 7 C0.4375 5.1875 0.4375 5.1875 -1 3 C-0.67 2.01 -0.34 1.02 0 0 Z " transform="translate(292,224)" style="fill: #38A254;"/><path d="M0 0 C0.66 0 1.32 0 2 0 C2 1.98 2 3.96 2 6 C2.66 6 3.32 6 4 6 C4 6.66 4 7.32 4 8 C2.02 8.99 2.02 8.99 0 10 C-0.33 8.02 -0.66 6.04 -1 4 C-0.34 4 0.32 4 1 4 C0.67 2.68 0.34 1.36 0 0 Z " transform="translate(210,218)" style="fill: #D24433;"/><path d="M0 0 C2.475 0.99 2.475 0.99 5 2 C5 2.66 5 3.32 5 4 C6.32 4 7.64 4 9 4 C9 4.66 9 5.32 9 6 C8.34 6 7.68 6 7 6 C6.67 6.66 6.34 7.32 6 8 C6 7.34 6 6.68 6 6 C5.34 6 4.68 6 4 6 C4 5.34 4 4.68 4 4 C3.34 4 2.68 4 2 4 C2 3.34 2 2.68 2 2 C1.34 2 0.68 2 0 2 C0 1.34 0 0.68 0 0 Z " transform="translate(190,220)" style="fill: #D33D31;"/><path d="M0 0 C1.04449911 3.13349732 0.93423645 3.98968256 0 7 C0.66 7 1.32 7 2 7 C2 7.99 2 8.98 2 10 C-0.475 9.01 -0.475 9.01 -3 8 C-3 6.68 -3 5.36 -3 4 C-2.34 4 -1.68 4 -1 4 C-0.67 2.68 -0.34 1.36 0 0 Z " transform="translate(167,206)" style="fill: #D23E2F;"/><path d="M0 0 C0.33 1.32 0.66 2.64 1 4 C-0.32 4 -1.64 4 -3 4 C-2.67 4.99 -2.34 5.98 -2 7 C-4.31 7.33 -6.62 7.66 -9 8 C-6.14723863 5.06799526 -3.34920216 2.35684596 0 0 Z " transform="translate(745,192)" style="fill: #44A35F;"/><path d="M0 0 C0.66 0 1.32 0 2 0 C2.36923077 7.38461538 2.36923077 7.38461538 0.5 10.5 C0.005 10.995 -0.49 11.49 -1 12 C-2.11658501 7.31034294 -1.80619523 4.46236469 0 0 Z " transform="translate(174,182)" style="fill: #439C4B;"/><path d="M0 0 C0.33 1.32 0.66 2.64 1 4 C0.01 4.495 0.01 4.495 -1 5 C-1 5.99 -1 6.98 -1 8 C-2.32 7.67 -3.64 7.34 -5 7 C-5 6.34 -5 5.68 -5 5 C-4.34 5 -3.68 5 -3 5 C-3 3.68 -3 2.36 -3 1 C-2.01 0.67 -1.02 0.34 0 0 Z " transform="translate(149,245)" style="fill: #D33B2E;"/><path d="M0 0 C0.66 0.33 1.32 0.66 2 1 C2 1.99 2 2.98 2 4 C2.66 4 3.32 4 4 4 C4 3.01 4 2.02 4 1 C4.99 0.67 5.98 0.34 7 0 C6.34 1.98 5.68 3.96 5 6 C3.02 5.34 1.04 4.68 -1 4 C-0.67 2.68 -0.34 1.36 0 0 Z " transform="translate(145,236)" style="fill: #4B9648;"/><path d="M0 0 C0 1.65 0 3.3 0 5 C0.99 5.33 1.98 5.66 3 6 C1 7 1 7 -2.125 6.0625 C-3.07375 5.711875 -4.0225 5.36125 -5 5 C-3.33333333 0 -3.33333333 0 0 0 Z " transform="translate(285,218)" style="fill: #4FA96A;"/><path d="M0 0 C1.32 0 2.64 0 4 0 C4 0.66 4 1.32 4 2 C4.66 2 5.32 2 6 2 C6 2.66 6 3.32 6 4 C5.34 4 4.68 4 4 4 C4 4.66 4 5.32 4 6 C3.34 6 2.68 6 2 6 C2 5.34 2 4.68 2 4 C1.34 3.67 0.68 3.34 0 3 C0 2.01 0 1.02 0 0 Z " transform="translate(176,218)" style="fill: #D43E30;"/><path d="M0 0 C2.26274788 0.35355436 3.95088852 0.97544426 6 2 C5.67 2.99 5.34 3.98 5 5 C2.03824877 4.38722388 0.61941217 3.74627478 -2 2 C-1.34 1.34 -0.68 0.68 0 0 Z " transform="translate(721,210)" style="fill: #42A759;"/><path d="M0 0 C1.98 0 3.96 0 6 0 C5.01 2.31 4.02 4.62 3 7 C2.34 7 1.68 7 1 7 C0.67 4.69 0.34 2.38 0 0 Z " transform="translate(522,208)" style="fill: #D2EDD7;"/><path d="M0 0 C1.32 0 2.64 0 4 0 C4 2.64 4 5.28 4 8 C3.34 8 2.68 8 2 8 C0.74335022 5.09399739 0 3.20395416 0 0 Z " transform="translate(200,194)" style="fill: #25A545;"/><path d="M0 0 C0.33 0.99 0.66 1.98 1 3 C-1.15343189 6.23014784 -2.27059611 7.75686537 -6 9 C-5.67 7.68 -5.34 6.36 -5 5 C-4.34 5 -3.68 5 -3 5 C-2.67 4.01 -2.34 3.02 -2 2 C-1.34 2 -0.68 2 0 2 C0 1.34 0 0.68 0 0 Z " transform="translate(470,246)" style="fill: #DCF7DF;"/><path d="M0 0 C3.36591866 1.44253657 5.51047079 3.33264727 8 6 C3.50347222 6.36458333 3.50347222 6.36458333 1.1875 4.6875 C0 3 0 3 0 0 Z " transform="translate(98,240)" style="fill: #37A056;"/><path d="M0 0 C0.66 0 1.32 0 2 0 C2 0.99 2 1.98 2 3 C2.99 3.33 3.98 3.66 5 4 C5.99 5.485 5.99 5.485 7 7 C4 7 4 7 1.3125 4.5 C0.549375 3.675 -0.21375 2.85 -1 2 C-0.67 1.34 -0.34 0.68 0 0 Z " transform="translate(586,184)" style="fill: #40A660;"/><path d="M0 0 C0.99 0.99 1.98 1.98 3 3 C1.60804085 5.7839183 -0.15575779 5.97898997 -3 7 C-3 5.35 -3 3.7 -3 2 C-2.01 2 -1.02 2 0 2 C0 1.34 0 0.68 0 0 Z " transform="translate(469,232)" style="fill: #E5F5EA;"/><path d="M0 0 C2 0.75 2 0.75 4 3.75 C3.34 4.41 2.68 5.07 2 5.75 C1.67 5.09 1.34 4.43 1 3.75 C0.34 3.585 -0.32 3.42 -1 3.25 C-1.66 3.085 -2.32 2.92 -3 2.75 C-3.33 2.09 -3.66 1.43 -4 0.75 C-2 -0.25 -2 -0.25 0 0 Z " transform="translate(700,228.25)" style="fill: #3DA45E;"/><path d="M0 0 C3.98381075 2.16264012 6.88983545 4.71211176 10 8 C9.236875 7.690625 8.47375 7.38125 7.6875 7.0625 C5.81210323 6.32106407 3.91315348 5.63771783 2 5 C0.8125 2.4375 0.8125 2.4375 0 0 Z " transform="translate(612,222)" style="fill: #379C55;"/><path d="M0 0 C3.53372712 1.96318174 6.24479785 4.04070881 9 7 C4.71193127 6.52354792 2.73352513 5.34097516 0 2 C0 1.34 0 0.68 0 0 Z " transform="translate(592,193)" style="fill: #E5F6E2;"/><path d="M0 0 C1.32 1.65 2.64 3.3 4 5 C3.67 5.66 3.34 6.32 3 7 C-0.16115776 5.63016497 -0.9927092 5.0109362 -3 2 C-2.34 2 -1.68 2 -1 2 C-0.67 1.34 -0.34 0.68 0 0 Z " transform="translate(766,185)" style="fill: #CCECD2;"/><path d="M0 0 C4.875 2.75 4.875 2.75 6 5 C4.35 5.66 2.7 6.32 1 7 C1.33 5.35 1.66 3.7 2 2 C1.34 2 0.68 2 0 2 C0 1.34 0 0.68 0 0 Z " transform="translate(626,233)" style="fill: #3CA458;"/><path d="M0 0 C4.03384128 2.07143201 5.92856799 3.96615872 8 8 C7.34 8 6.68 8 6 8 C6 7.34 6 6.68 6 6 C4.68 5.67 3.36 5.34 2 5 C2 4.01 2 3.02 2 2 C1.34 2 0.68 2 0 2 C0 1.34 0 0.68 0 0 Z " transform="translate(288,226)" style="fill: #D5F2D6;"/><path d="M0 0 C2.92879371 0.62759865 5.36095629 1.58622659 8 3 C7.67 4.32 7.34 5.64 7 7 C5.83040013 6.02433888 4.66438823 5.044375 3.5 4.0625 C2.8503125 3.51722656 2.200625 2.97195312 1.53125 2.41015625 C1.0259375 1.94480469 0.520625 1.47945312 0 1 C0 0.67 0 0.34 0 0 Z " transform="translate(96,224)" style="fill: #40A361;"/><path d="M0 0 C0.66 0.33 1.32 0.66 2 1 C0.68 3.64 -0.64 6.28 -2 9 C-2.33 9 -2.66 9 -3 9 C-3.1875 5.625 -3.1875 5.625 -3 2 C-2.01 1.34 -1.02 0.68 0 0 Z " transform="translate(519,219)" style="fill: #E8F6E4;"/><path d="M0 0 C0.66 0.33 1.32 0.66 2 1 C2 2.32 2 3.64 2 5 C-0.97 4.505 -0.97 4.505 -4 4 C-4 3.34 -4 2.68 -4 2 C-2.125 0.9375 -2.125 0.9375 0 0 Z " transform="translate(458,219)" style="fill: #5EAD77;"/><path d="M0 0 C2.31 0 4.62 0 7 0 C7 0.66 7 1.32 7 2 C7.66 2 8.32 2 9 2 C8.67 2.99 8.34 3.98 8 5 C5.36 3.68 2.72 2.36 0 1 C0 0.67 0 0.34 0 0 Z " transform="translate(441,196)" style="fill: #C8E8CC;"/><path d="M0 0 C2.62386487 3.06117568 3 3.73173127 3 8 C1.68 8 0.36 8 -1 8 C-0.67 5.36 -0.34 2.72 0 0 Z " transform="translate(189,176)" style="fill: #C54A35;"/><path d="M0 0 C1.32 0 2.64 0 4 0 C4 0.66 4 1.32 4 2 C5.32 2.33 6.64 2.66 8 3 C8 3.99 8 4.98 8 6 C4.63408134 4.55746343 2.48952921 2.66735273 0 0 Z " transform="translate(112,250)" style="fill: #D3F0DB;"/><path d="M0 0 C0.66 0 1.32 0 2 0 C2.33 1.65 2.66 3.3 3 5 C1.35 5.33 -0.3 5.66 -2 6 C-2 5.34 -2 4.68 -2 4 C-1.34 4 -0.68 4 0 4 C0 2.68 0 1.36 0 0 Z " transform="translate(222,246)" style="fill: #EE2B29;"/><path d="M0 0 C0.66 0 1.32 0 2 0 C1.67 1.65 1.34 3.3 1 5 C0.34 5 -0.32 5 -1 5 C-1 5.99 -1 6.98 -1 8 C-1.66 7.67 -2.32 7.34 -3 7 C-2.01 4.69 -1.02 2.38 0 0 Z " transform="translate(150,232)" style="fill: #22A546;"/><path d="M0 0 C1.65 0 3.3 0 5 0 C5.66 1.32 6.32 2.64 7 4 C5.68 4 4.36 4 3 4 C1.25 2 1.25 2 0 0 Z " transform="translate(712,224)" style="fill: #42A65C;"/><path d="M0 0 C0.66 1.32 1.32 2.64 2 4 C1.34 4 0.68 4 0 4 C-0.33 4.99 -0.66 5.98 -1 7 C-1.99 7.33 -2.98 7.66 -4 8 C-2.87548273 5.0280615 -1.77706209 2.66559313 0 0 Z " transform="translate(515,208)" style="fill: #D3F0D8;"/><path d="M0 0 C1.32 0.66 2.64 1.32 4 2 C3.67 2.99 3.34 3.98 3 5 C3.66 5 4.32 5 5 5 C4.67 5.66 4.34 6.32 4 7 C3.01 6.34 2.02 5.68 1 5 C1 4.34 1 3.68 1 3 C0.34 3 -0.32 3 -1 3 C-0.67 2.01 -0.34 1.02 0 0 Z " transform="translate(59,204)" style="fill: #E7F8EB;"/><path d="M0 0 C2.475 0.495 2.475 0.495 5 1 C5.33 1.99 5.66 2.98 6 4 C6.66 4.33 7.32 4.66 8 5 C7.01 5.495 7.01 5.495 6 6 C3.97945196 4.35830472 1.97956942 2.69088222 0 1 C0 0.67 0 0.34 0 0 Z " transform="translate(69,202)" style="fill: #44A362;"/><path d="M0 0 C2.88575819 0.39803561 3.82189513 0.79009069 5.75 3.0625 C6.1625 3.701875 6.575 4.34125 7 5 C5.68 5.33 4.36 5.66 3 6 C2 4 1 2 0 0 Z " transform="translate(277,192)" style="fill: #E8F3EB;"/><path d="M0 0 C2.64 0 5.28 0 8 0 C7.67 1.32 7.34 2.64 7 4 C7 3.34 7 2.68 7 2 C5.02 2.33 3.04 2.66 1 3 C0.67 2.01 0.34 1.02 0 0 Z " transform="translate(684,188)" style="fill: #FBF6EE;"/><path d="M0 0 C0.66 0 1.32 0 2 0 C2 0.66 2 1.32 2 2 C2.66 2 3.32 2 4 2 C4 2.66 4 3.32 4 4 C4.66 4 5.32 4 6 4 C6 4.66 6 5.32 6 6 C4.68 6 3.36 6 2 6 C1.34 4.02 0.68 2.04 0 0 Z " transform="translate(226,260)" style="fill: #25A742;"/><path d="M0 0 C1 4 1 4 0 6 C-3.0625 6.625 -3.0625 6.625 -6 7 C-4.02 4.69 -2.04 2.38 0 0 Z " transform="translate(470,249)" style="fill: #4CA566;"/><path d="M0 0 C3.24208567 0.35049575 4.61527704 0.56221181 6.8125 3.0625 C7.204375 3.701875 7.59625 4.34125 8 5 C7.01 5.33 6.02 5.66 5 6 C3.35 4.02 1.7 2.04 0 0 Z " transform="translate(719,245)" style="fill: #DFF5E3;"/><path d="M0 0 C0.33 0.99 0.66 1.98 1 3 C-0.4375 5.1875 -0.4375 5.1875 -2 7 C-2.99 6.67 -3.98 6.34 -5 6 C-3.35 4.02 -1.7 2.04 0 0 Z " transform="translate(180,238)" style="fill: #D5F0DB;"/><path d="M0 0 C0.66 0 1.32 0 2 0 C1.42655063 2.86724686 1.1385485 3.8614515 -1 6 C-1.99 6 -2.98 6 -4 6 C-4 5.34 -4 4.68 -4 4 C-3.34 4 -2.68 4 -2 4 C-2 3.34 -2 2.68 -2 2 C-1.34 2 -0.68 2 0 2 C0 1.34 0 0.68 0 0 Z " transform="translate(162,240)" style="fill: #4E9344;"/><path d="M0 0 C2.86724686 0.57344937 3.8614515 0.8614515 6 3 C5.01 3.66 4.02 4.32 3 5 C2.01 4.34 1.02 3.68 0 3 C0 2.01 0 1.02 0 0 Z " transform="translate(276,230)" style="fill: #36A760;"/><path d="M0 0 C2.31 0.33 4.62 0.66 7 1 C7 2.32 7 3.64 7 5 C4.11562221 3.70700306 2.12780579 2.34058637 0 0 Z " transform="translate(88,218)" style="fill: #4BAB69;"/><path d="M0 0 C0.33 0.66 0.66 1.32 1 2 C2.98 2 4.96 2 7 2 C7 2.66 7 3.32 7 4 C5.25 4.75 5.25 4.75 3 5 C0.75 3.0625 0.75 3.0625 -1 1 C-0.67 0.67 -0.34 0.34 0 0 Z " transform="translate(87,214)" style="fill: #21A549;"/><path d="M0 0 C0.66 0.33 1.32 0.66 2 1 C0.68 2.65 -0.64 4.3 -2 6 C-3.32 5.67 -4.64 5.34 -6 5 C-4.02 3.35 -2.04 1.7 0 0 Z " transform="translate(706,210)" style="fill: #D6F4D8;"/><path d="M0 0 C2.64 0.33 5.28 0.66 8 1 C6.515 2.485 6.515 2.485 5 4 C3.31503702 3.03114628 1.64821244 2.03013277 0 1 C0 0.67 0 0.34 0 0 Z " transform="translate(76,208)" style="fill: #3EA65D;"/><path d="M0 0 C0.66 0 1.32 0 2 0 C1.75 1.875 1.75 1.875 1 4 C-1.0625 5.25 -1.0625 5.25 -3 6 C-3 4.68 -3 3.36 -3 2 C-2.01 2 -1.02 2 0 2 C0 1.34 0 0.68 0 0 Z " transform="translate(709,204)" style="fill: #36A357;"/><path d="M0 0 C0.99 0 1.98 0 3 0 C4.05404945 3.98196457 3.84098656 6.98195309 3 11 C2.67 11 2.34 11 2 11 C1.77213542 9.01432292 1.54427083 7.02864583 1.31640625 5.04296875 C1.02829265 2.80603607 1.02829265 2.80603607 0 0 Z " transform="translate(450,200)" style="fill: #DEF1DA;"/><path d="M0 0 C0.33 0.66 0.66 1.32 1 2 C-3.455 2.495 -3.455 2.495 -8 3 C-8 2.34 -8 1.68 -8 1 C-5.07175348 0.02391783 -3.04386724 -0.08226668 0 0 Z " transform="translate(269,197)" style="fill: #369F53;"/><path d="M0 0 C0.66 0.99 1.32 1.98 2 3 C-1.3111013 4.10370043 -3.24748949 3.92673641 -6.6875 3.5625 C-7.68136719 3.46066406 -8.67523437 3.35882813 -9.69921875 3.25390625 C-10.45847656 3.17011719 -11.21773437 3.08632812 -12 3 C-12 2.67 -12 2.34 -12 2 C-11.21753906 1.93941406 -10.43507813 1.87882813 -9.62890625 1.81640625 C-8.61699219 1.73261719 -7.60507812 1.64882812 -6.5625 1.5625 C-5.55316406 1.48128906 -4.54382813 1.40007812 -3.50390625 1.31640625 C-1.06359221 1.26788532 -1.06359221 1.26788532 0 0 Z " transform="translate(781,190)" style="fill: #6AC27F;"/><path d="M0 0 C1.65 0.99 3.3 1.98 5 3 C3.68 3.99 2.36 4.98 1 6 C0.67 5.34 0.34 4.68 0 4 C-0.66 3.67 -1.32 3.34 -2 3 C-1.34 3 -0.68 3 0 3 C0 2.01 0 1.02 0 0 Z " transform="translate(731,258)" style="fill: #3FA257;"/><path d="M0 0 C1.32 1.65 2.64 3.3 4 5 C2.68 5.33 1.36 5.66 0 6 C0 5.34 0 4.68 0 4 C-0.66 4 -1.32 4 -2 4 C-2 3.34 -2 2.68 -2 2 C-1.34 2 -0.68 2 0 2 C0 1.34 0 0.68 0 0 Z " transform="translate(230,258)" style="fill: #B1563B;"/><path d="M0 0 C2.97 1.98 2.97 1.98 6 4 C5.67 4.66 5.34 5.32 5 6 C3.68 5.67 2.36 5.34 1 5 C0.67 3.35 0.34 1.7 0 0 Z " transform="translate(116,254)" style="fill: #3AA259;"/><path d="M0 0 C0.99 0.99 1.98 1.98 3 3 C2.34 3.66 1.68 4.32 1 5 C0.01 4.34 -0.98 3.68 -2 3 C-1.34 2.01 -0.68 1.02 0 0 Z M-4 5 C-3.67 5.99 -3.34 6.98 -3 8 C-3.66 7.67 -4.32 7.34 -5 7 C-4.67 6.34 -4.34 5.68 -4 5 Z " transform="translate(109,248)" style="fill: #3DA457;"/><path d="M0 0 C0.66 1.32 1.32 2.64 2 4 C0.625 5.5 0.625 5.5 -1 7 C-1.66 7 -2.32 7 -3 7 C-1.125 1.125 -1.125 1.125 0 0 Z " transform="translate(491,248)" style="fill: #D9EDD8;"/><path d="M0 0 C0.99 0.33 1.98 0.66 3 1 C3 2.65 3 4.3 3 6 C1.35 5.01 -0.3 4.02 -2 3 C-1.34 2.01 -0.68 1.02 0 0 Z " transform="translate(649,234)" style="fill: #3DA35A;"/><path d="M0 0 C0 1.32 0 2.64 0 4 C-2.31 4 -4.62 4 -7 4 C-2.25 0 -2.25 0 0 0 Z " transform="translate(275,216)" style="fill: #D4EFD8;"/><path d="M0 0 C1.98 0.99 1.98 0.99 4 2 C4 2.66 4 3.32 4 4 C4.66 4.33 5.32 4.66 6 5 C4.68 5 3.36 5 2 5 C0 1.125 0 1.125 0 0 Z " transform="translate(625,216)" style="fill: #3DA55E;"/><path d="M0 0 C1.32 0 2.64 0 4 0 C3.1875 1.9375 3.1875 1.9375 2 4 C1.01 4.33 0.02 4.66 -1 5 C-0.67 3.35 -0.34 1.7 0 0 Z " transform="translate(281,216)" style="fill: #EEF6EB;"/><path d="M0 0 C1.98 0.495 1.98 0.495 4 1 C2.68 3.31 1.36 5.62 0 8 C-0.98120464 4.94736336 -0.98120464 3.05263664 0 0 Z " transform="translate(508,213)" style="fill: #36A059;"/><path d="M0 0 C1.65 0 3.3 0 5 0 C5 1.65 5 3.3 5 5 C2.5 3.625 2.5 3.625 0 2 C0 1.34 0 0.68 0 0 Z " transform="translate(51,187)" style="fill: #3AA45C;"/><path d="M0 0 C0.66 0.33 1.32 0.66 2 1 C1.34 3.31 0.68 5.62 0 8 C-0.66 8 -1.32 8 -2 8 C-2.125 5.125 -2.125 5.125 -2 2 C-1.34 1.34 -0.68 0.68 0 0 Z " transform="translate(764,175)" style="fill: #F5FCF9;"/></svg>